<svg xmlns="http://www.w3.org/2000/svg" width="29.159" height="29.159" viewBox="0 0 29.159 29.159"><defs><style>.a{fill:#888;}.b{fill:#ba1f6a;}</style></defs><path class="a" d="M24.889,4.27A14.58,14.58,0,0,0,4.27,24.889a14.586,14.586,0,0,0,17.853,2.169,1.139,1.139,0,1,0-1.18-1.948,12.409,12.409,0,1,1,3.852-3.7,1.139,1.139,0,1,0,1.894,1.266,14.545,14.545,0,0,0-1.8-18.4Z"/><path class="b" d="M160.913,151.427l-4.178,4.178,4.178,4.178a1.139,1.139,0,1,1-1.611,1.611l-4.178-4.178-4.178,4.178a1.139,1.139,0,0,1-1.611-1.611l4.178-4.178-4.178-4.178a1.139,1.139,0,0,1,1.611-1.611l4.178,4.178,4.178-4.178a1.139,1.139,0,0,1,1.611,1.611Z" transform="translate(-140.516 -140.969)"/></svg>