<svg xmlns="http://www.w3.org/2000/svg" width="31.036" height="28.19" viewBox="0 0 31.036 28.19"><defs><style>.a{fill:#ba1f6a;}</style></defs><g transform="translate(-5.703 -9.764)"><path class="a" d="M21.258,13.833a8.8,8.8,0,0,1,13.493-.991,6.743,6.743,0,0,1,1.979,4.221c.151,2.834-1.878,5.261-3.787,7.363L20.862,37.737a.532.532,0,0,1-.336.217.522.522,0,0,1-.343-.165A58.247,58.247,0,0,1,9.517,26.244C7.17,22.885,5.1,18.881,5.863,14.856A6.084,6.084,0,0,1,6.8,12.481C8.038,10.7,10.347,10,12.508,9.812c2.851-.252,6.207.462,7.479,3.027" transform="translate(0)"/></g></svg>