<svg xmlns="http://www.w3.org/2000/svg" width="14.718" height="14.063" viewBox="0 0 14.718 14.063"><defs><style>.a{fill:#ba1f6a;}</style></defs><g transform="translate(-0.001 -11.395)"><g transform="translate(0.001 11.395)"><path class="a" d="M14.575,16.539a4.63,4.63,0,0,0-4.684-.913,4.63,4.63,0,0,0-2.316-4.173.431.431,0,0,0-.432,0,4.63,4.63,0,0,0-2.316,4.173,4.63,4.63,0,0,0-4.684.913.431.431,0,0,0-.133.411,4.631,4.631,0,0,0,3.253,3.492,4.631,4.631,0,0,0-.579,4.737.431.431,0,0,0,.349.254,4.63,4.63,0,0,0,4.326-2.015,4.63,4.63,0,0,0,4.326,2.015.431.431,0,0,0,.349-.254,4.63,4.63,0,0,0-.579-4.737,4.631,4.631,0,0,0,3.253-3.492A.431.431,0,0,0,14.575,16.539Zm-7.216-4.2a3.77,3.77,0,0,1,1.606,3.833l-.842,1.158a1.926,1.926,0,0,0-.333-.108V16.163a.431.431,0,0,0-.862,0v1.053a1.928,1.928,0,0,0-.333.108l-.842-1.158A3.77,3.77,0,0,1,7.359,12.334ZM.915,17.016a3.77,3.77,0,0,1,4.141-.343L5.9,17.833a1.954,1.954,0,0,0-.206.283l-1-.326a.431.431,0,1,0-.266.82l1,.326a1.86,1.86,0,0,0,0,.35l-1.362.442A3.77,3.77,0,0,1,.915,17.016Zm6.013,5.419a3.77,3.77,0,0,1-3.552,2.157,3.77,3.77,0,0,1,.954-4.044l1.362-.443a1.953,1.953,0,0,0,.206.283l-.62.853a.431.431,0,0,0,.7.507l.619-.852A1.926,1.926,0,0,0,6.928,21Zm.431-2.245a1.08,1.08,0,1,1,1.08-1.08A1.081,1.081,0,0,1,7.359,20.19Zm3.983,4.4A3.769,3.769,0,0,1,7.79,22.436V21a1.926,1.926,0,0,0,.333-.108l.619.852a.431.431,0,0,0,.7-.507l-.62-.853a1.953,1.953,0,0,0,.206-.283l1.362.443A3.77,3.77,0,0,1,11.342,24.592Zm-.687-4.865-1.362-.442a1.86,1.86,0,0,0,0-.35l1-.326a.431.431,0,0,0-.266-.82l-1,.326a1.953,1.953,0,0,0-.206-.283l.842-1.159a3.77,3.77,0,0,1,4.141.343A3.77,3.77,0,0,1,10.655,19.728Z" transform="translate(-0.001 -11.395)"/></g></g></svg>