<svg xmlns="http://www.w3.org/2000/svg" width="24" height="24" viewBox="0 0 24 24"><defs><style>.a{opacity:0.5;}.b{fill:#a7a6a3;}</style></defs><g class="a" transform="translate(0.479)"><path class="b" d="M0,0H11a0,0,0,0,1,0,0V9a2,2,0,0,1-2,2H2A2,2,0,0,1,0,9V0A0,0,0,0,1,0,0Z" transform="translate(-0.479)"/><path class="b" d="M0,0H11a0,0,0,0,1,0,0V9a2,2,0,0,1-2,2H2A2,2,0,0,1,0,9V0A0,0,0,0,1,0,0Z" transform="translate(12.521)"/><path class="b" d="M0,0H11a0,0,0,0,1,0,0V9a2,2,0,0,1-2,2H2A2,2,0,0,1,0,9V0A0,0,0,0,1,0,0Z" transform="translate(-0.479 13)"/><path class="b" d="M0,0H11a0,0,0,0,1,0,0V9a2,2,0,0,1-2,2H2A2,2,0,0,1,0,9V0A0,0,0,0,1,0,0Z" transform="translate(12.521 13)"/></g></svg>