<svg xmlns="http://www.w3.org/2000/svg" width="64.573" height="69.622" viewBox="0 0 64.573 69.622"><defs><style>.a{fill:#ba1f6a;}</style></defs><g transform="translate(-0.012 0.001)"><path class="a" d="M134.883,43.288a1.154,1.154,0,0,0,1.106-1.481,20.325,20.325,0,0,0-4.188-7.648,6.419,6.419,0,0,0-6.093-1.865,1.153,1.153,0,0,0-.665.666,2.889,2.889,0,0,0-.141.532,4.418,4.418,0,0,0-.058.65v.019a6.961,6.961,0,0,0,2.062,4.892,20.334,20.334,0,0,0,7.645,4.185A1.209,1.209,0,0,0,134.883,43.288Zm-6.342-5.869a4.766,4.766,0,0,1-1.056-1.609V35.8c-.051-.128-.095-.256-.132-.379-.02-.067-.034-.13-.051-.2s-.033-.115-.044-.173-.014-.081-.022-.122a4.393,4.393,0,0,1-.07-.521,4.766,4.766,0,0,1,3.012,1.384,15.67,15.67,0,0,1,2.734,4.371,15.668,15.668,0,0,1-4.376-2.744Zm0,0" transform="translate(-106.839 -27.505)"/><path class="a" d="M63.432,16.579h-17.8a16.14,16.14,0,0,0,2.16-1.768c4.125-4.137,4.26-10.41,1.625-13.045S40.512-.736,36.37,3.393A22.624,22.624,0,0,0,32.3,9.642,22.6,22.6,0,0,0,28.224,3.39C24.087-.735,17.814-.87,15.179,1.765s-2.5,8.908,1.625,13.046a16.211,16.211,0,0,0,2.16,1.768H1.165A1.153,1.153,0,0,0,.012,17.732V29.263a1.153,1.153,0,0,0,1.153,1.153H3.471v33.44a5.773,5.773,0,0,0,5.765,5.765H55.36a5.772,5.772,0,0,0,5.765-5.765V30.416h2.306a1.153,1.153,0,0,0,1.153-1.153V17.732A1.153,1.153,0,0,0,63.432,16.579ZM38,5.023c3.314-3.3,8.148-3.266,9.786-1.627s1.678,6.47-1.626,9.785a19.311,19.311,0,0,1-5.116,3.4h-6.89V16.5c0-.263-.02-.529-.045-.8-.01-.088-.02-.176-.03-.266q-.04-.332-.1-.662c-.012-.077-.025-.155-.039-.231-.055-.287-.115-.57-.185-.843-.009-.039-.02-.074-.029-.115-.061-.239-.124-.461-.189-.691-.009-.032-.017-.066-.026-.1A21.985,21.985,0,0,1,38,5.023ZM36.911,28.11H27.686V18.885h9.225ZM18.436,13.182c-3.3-3.315-3.266-8.147-1.627-9.786s6.47-1.678,9.783,1.624A22.15,22.15,0,0,1,31.2,13.147c.13.4.23.793.325,1.171.026.108.048.213.072.319.062.282.113.55.15.807.012.087.029.177.039.262a7.453,7.453,0,0,1,.059.868h-8.3A19.326,19.326,0,0,1,18.436,13.182Zm-16.118,5.7H25.38V28.11H2.318ZM5.777,63.856V30.416H27.686v36.9H9.237A3.459,3.459,0,0,1,5.777,63.856Zm24.215,3.459v-36.9H34.6v36.9ZM58.82,63.856a3.459,3.459,0,0,1-3.459,3.459H36.911v-36.9H58.82ZM62.279,28.11H39.217V18.885H62.279Zm0,0" transform="translate(0 0)"/><path class="a" d="M246.66,43.342a1.153,1.153,0,0,0,.328-.047,20.259,20.259,0,0,0,7.651-4.193,6.527,6.527,0,0,0,1.868-6.1,1.146,1.146,0,0,0-.663-.663,6.527,6.527,0,0,0-6.1,1.868,20.274,20.274,0,0,0-4.193,7.651,1.154,1.154,0,0,0,1.106,1.481Zm4.718-7.5a4.783,4.783,0,0,1,3.014-1.384,4.778,4.778,0,0,1-1.383,3.015,15.587,15.587,0,0,1-4.382,2.749A15.578,15.578,0,0,1,251.378,35.841Zm0,0" transform="translate(-210.11 -27.555)"/></g></svg>