<svg xmlns="http://www.w3.org/2000/svg" width="26.718" height="24.342" viewBox="0 0 26.718 24.342"><defs><style>.a{fill:#fff;}</style></defs><g transform="translate(0 -24.92)"><g transform="translate(0 24.92)"><path class="a" d="M0,24.92v5.513a1.6,1.6,0,0,0,1.6,1.6H5.514a1.6,1.6,0,0,0,1.6-1.6V24.92Z" transform="translate(0 -24.92)"/><path class="a" d="M178.7,24.92v5.513a1.6,1.6,0,0,0,1.6,1.6h15a1.6,1.6,0,0,0,1.6-1.6V24.92Z" transform="translate(-170.184 -24.92)"/><path class="a" d="M0,205.632v5.513a1.6,1.6,0,0,0,1.6,1.6H5.514a1.6,1.6,0,0,0,1.6-1.6v-5.513Z" transform="translate(0 -197.017)"/><path class="a" d="M178.7,205.632v5.513a1.6,1.6,0,0,0,1.6,1.6h15a1.6,1.6,0,0,0,1.6-1.6v-5.513Z" transform="translate(-170.184 -197.017)"/><path class="a" d="M0,386.343v5.514a1.6,1.6,0,0,0,1.6,1.6H5.514a1.6,1.6,0,0,0,1.6-1.6v-5.514Z" transform="translate(0 -369.112)"/><path class="a" d="M178.7,386.343v5.514a1.6,1.6,0,0,0,1.6,1.6h15a1.6,1.6,0,0,0,1.6-1.6v-5.514Z" transform="translate(-170.184 -369.112)"/></g></g></svg>