<svg xmlns="http://www.w3.org/2000/svg" width="26.404" height="26.4" viewBox="0 0 26.404 26.4"><defs><style>.a{fill:#ba1f6a;}.b{fill:#323232;stroke:#323232;stroke-width:0.4px;}</style></defs><g transform="translate(0.2 0.2)"><path class="a" d="M113.539,211.078H98.508A.508.508,0,0,1,98,210.57v-4.062a.508.508,0,0,1,.508-.508h15.031a.508.508,0,0,1,.508.508v4.062A.508.508,0,0,1,113.539,211.078Zm-14.523-1.016h14.016v-3.047H99.016Zm0,0" transform="translate(-93.023 -195.539)"/><path class="b" d="M13,26q-.5,0-1-.038a13,13,0,1,1,11.565-5.385.508.508,0,1,1-.825-.593,11.984,11.984,0,1,0-2.757,2.757.508.508,0,1,1,.593.825A13,13,0,0,1,13,26Zm0,0"/><path class="b" d="M420.461,420.969a.508.508,0,1,1,.359-.149A.511.511,0,0,1,420.461,420.969Zm0,0" transform="translate(-398.627 -398.627)"/></g></svg>