<svg xmlns="http://www.w3.org/2000/svg" width="36.009" height="36.008" viewBox="0 0 36.009 36.008"><defs><style>.a{fill:#323232;}.b{fill:#ba1f6a;}</style></defs><g transform="translate(-16 -16)"><path class="a" d="M50.808,226.107V208.6a.6.6,0,0,0-.6-.6H34v1.2h3.23l-1.8,3.6H31.975l1.366-2.732-1.074-.537L30.633,212.8H27.173l.466-.932-1.074-.537-.734,1.469H22.372l.466-.932-1.074-.537L21.03,212.8H17.571l1.066-2.132-1.074-.537-1.5,3A.6.6,0,0,0,16,213.4h0v1.2a3.006,3.006,0,0,0,2.4,2.94V226h-.6a1.8,1.8,0,1,0,0,3.6H50.208a1.8,1.8,0,0,0,.6-3.5ZM43.606,214h6v12h-6Zm6-1.2H41.577l1.8-3.6h6.231ZM22,214h3.6v.6a1.8,1.8,0,0,1-3.6,0Zm4.8,0h3.6v.6a1.8,1.8,0,0,1-3.6,0Zm4.8,0h3.6v.6a1.8,1.8,0,0,1-3.6,0Zm4.8,0h3.6v.6a1.8,1.8,0,0,1-3.6,0Zm2.171-4.8h3.459l-1.8,3.6H36.776ZM17.2,214.6V214h3.6v.6a1.8,1.8,0,0,1-3.6,0Zm2.4,2.94a3.006,3.006,0,0,0,1.8-1.142,3,3,0,0,0,4.8,0,3,3,0,0,0,4.8,0,3,3,0,0,0,4.8,0,3,3,0,0,0,5.4-1.8V214h1.2v12H25.6v-6.6a.6.6,0,0,0-.6-.6H21.4a.6.6,0,0,0-.6.6V226H19.6ZM24.4,226H22v-6h2.4Zm25.806,2.4H17.8a.6.6,0,0,1,0-1.2H50.208a.6.6,0,1,1,0,1.2Z" transform="translate(0 -177.597)"/><path class="a" d="M160.6,358h13.2a.6.6,0,0,0,.6-.6v-4.8a.6.6,0,0,0-.6-.6H160.6a.6.6,0,0,0-.6.6v4.8a.6.6,0,0,0,.6.6Zm.6-4.8h12v3.6h-12Z" transform="translate(-133.197 -310.794)"/><path class="a" d="M403,352h-2.4a.6.6,0,0,0-.6.6v4.2a.6.6,0,0,0,.6.6H403a.6.6,0,0,0,.6-.6v-4.2a.6.6,0,0,0-.6-.6Zm-.6,4.2h-1.2v-3h1.2Z" transform="translate(-355.193 -310.794)"/><path class="b" d="M24.4,32.8h2.4a8.4,8.4,0,1,0,0-16.8H24.4a8.4,8.4,0,0,0,0,16.8ZM34,24.4a7.213,7.213,0,0,1-4.514,6.681,8.392,8.392,0,0,0,0-13.362A7.213,7.213,0,0,1,34,24.4ZM20.3,18.488l.586,1.015,1.04-.6-.587-1.017a7.146,7.146,0,0,1,2.466-.661V18.4H25V17.226a7.145,7.145,0,0,1,2.468.662L26.883,18.9l1.039.6.586-1.015A7.261,7.261,0,0,1,30.315,20.3l-1.015.586.6,1.04,1.017-.587a7.146,7.146,0,0,1,.662,2.468H30.4V25h1.175a7.146,7.146,0,0,1-.662,2.468L29.9,26.883l-.6,1.039,1.015.586a7.261,7.261,0,0,1-1.806,1.806L27.922,29.3l-1.04.6.587,1.017A7.146,7.146,0,0,1,25,31.579V30.4H23.8v1.175a7.146,7.146,0,0,1-2.468-.662L21.92,29.9l-1.039-.6-.586,1.015a7.261,7.261,0,0,1-1.806-1.806l1.015-.586-.6-1.04-1.017.587A7.146,7.146,0,0,1,17.225,25H18.4V23.8H17.226a7.146,7.146,0,0,1,.663-2.468l1.017.587.6-1.039-1.015-.586A7.261,7.261,0,0,1,20.3,18.488Z"/><path class="b" d="M100.992,69.226a.6.6,0,0,0,.176-.424V64h-1.2v4.553l-1.625,1.625.849.849Z" transform="translate(-76.166 -44.399)"/></g></svg>