<svg xmlns="http://www.w3.org/2000/svg" width="34.529" height="50.152" viewBox="0 0 34.529 50.152"><defs><style>.a{fill:#888;}</style></defs><g transform="translate(21.89 31.642)"><g transform="translate(0 0)"><path class="a" d="M329.987,220.357H319.954V216.5a6.741,6.741,0,0,1,1.451-4.169l2.157-2.723a1.138,1.138,0,0,1,1.84,1.336l-2.31,3.478a.651.651,0,1,0,1.085.721l2.31-3.478a2.441,2.441,0,0,0-3.947-2.866l-2.157,2.723a8.049,8.049,0,0,0-1.733,4.979v3.857a.652.652,0,0,0-.651.651v4.723a.651.651,0,0,0,1.3,0V221.66h10.033v4.072a.651.651,0,0,0,1.3,0v-4.723A.651.651,0,0,0,329.987,220.357Z" transform="translate(-318 -207.873)"/></g></g><g transform="translate(32.569 41.313)"><g transform="translate(0 0)"><path class="a" d="M483.032,356.513a.651.651,0,1,0,.191.461A.656.656,0,0,0,483.032,356.513Z" transform="translate(-481.92 -356.322)"/></g></g><g transform="translate(24.107 19.403)"><g transform="translate(0 0)"><path class="a" d="M360.355,28.876l-2.971-7.154a2.78,2.78,0,1,0-5.125,2.157l3.146,7.377a.651.651,0,0,0,1.2-.511l-3.146-7.377a1.478,1.478,0,1,1,2.724-1.146l2.971,7.154a17.473,17.473,0,0,1,1.343,6.734v3.767a.652.652,0,0,0,1.3,0V36.11A18.768,18.768,0,0,0,360.355,28.876Z" transform="translate(-352.032 -20.008)"/></g></g><g transform="translate(25.082 46.83)"><g transform="translate(0 0)"><path class="a" d="M368.137,441.209l-.005-.006a.652.652,0,0,0-.961.88l.005.006a.652.652,0,0,0,.961-.88Z" transform="translate(-367 -440.992)"/></g></g><g transform="translate(0 19.403)"><g transform="translate(0 0)"><path class="a" d="M11.987,44.732V40.875A8.049,8.049,0,0,0,10.254,35.9L8.1,33.174A2.441,2.441,0,0,0,4.151,36.04l2.31,3.478A.651.651,0,0,0,7.546,38.8l-2.31-3.478a1.138,1.138,0,0,1,1.84-1.336l2.157,2.723a6.741,6.741,0,0,1,1.452,4.169v3.857H1.96V36.111A17.473,17.473,0,0,1,3.3,29.377l2.971-7.154A1.478,1.478,0,1,1,9,23.369L5.851,30.746a.651.651,0,0,0,1.2.511L10.2,23.88A2.78,2.78,0,1,0,5.07,21.723L2.1,28.877A18.769,18.769,0,0,0,.657,36.111v8.621H.651A.652.652,0,0,0,0,45.383v4.723a.651.651,0,1,0,1.3,0V46.035H11.336v4.072a.651.651,0,1,0,1.3,0V45.383A.651.651,0,0,0,11.987,44.732Z" transform="translate(0 -20.009)"/></g></g><g transform="translate(8.138 46.83)"><g transform="translate(0 0)"><path class="a" d="M126.016,441.163a.651.651,0,0,0-.92.04l-.005.006a.652.652,0,0,0,.961.88l.005-.006A.651.651,0,0,0,126.016,441.163Z" transform="translate(-124.92 -440.992)"/></g></g><g transform="translate(6.28 0)"><path class="a" d="M133.787,11.311a3.685,3.685,0,0,0-2.73-3.554,3.679,3.679,0,0,0-5.027-5.027,3.679,3.679,0,0,0-7.108,0A3.679,3.679,0,0,0,113.9,7.757a3.679,3.679,0,0,0,0,7.109,3.68,3.68,0,0,0,5.027,5.027c.367,1.373,2.928,2.675,2.928,2.675V37.476s.28.626.626.626.626-.626.626-.626V22.568s2.561-1.3,2.928-2.675a3.679,3.679,0,0,0,5.027-5.027A3.685,3.685,0,0,0,133.787,11.311ZM115.363,4.2a2.427,2.427,0,0,1,3.432,0c.014.014.033.034.056.061a34.123,34.123,0,0,0,1.173,4.311,3.722,3.722,0,0,0-.289.289,34.122,34.122,0,0,0-4.312-1.173c-.028-.024-.047-.043-.061-.056A2.43,2.43,0,0,1,115.363,4.2Zm-2.946,7.113a2.43,2.43,0,0,1,2.427-2.427,19.812,19.812,0,0,1,4.212,1.074,3.665,3.665,0,0,0,0,2.706,19.818,19.818,0,0,1-4.212,1.074A2.43,2.43,0,0,1,112.416,11.311ZM122.475,21.37a2.43,2.43,0,0,1-2.427-2.427,6.179,6.179,0,0,1,.225-1.262.626.626,0,1,0-1.216-.3c-.095.389-.162.71-.205.976-.025.028-.044.049-.058.063a2.427,2.427,0,0,1-3.432-3.432c.013-.013.034-.032.061-.057a34.124,34.124,0,0,0,4.311-1.173,3.715,3.715,0,0,0,.289.289c-.09.282-.175.555-.254.813a.626.626,0,1,0,1.2.368c.05-.162.1-.33.156-.5a3.665,3.665,0,0,0,2.706,0,19.813,19.813,0,0,1,1.074,4.212A2.43,2.43,0,0,1,122.475,21.37Zm0-7.632a2.427,2.427,0,1,1,2.427-2.427A2.43,2.43,0,0,1,122.475,13.738Zm2.448-7.294a.626.626,0,0,0-.779.42c-.1.321-.2.665-.316,1.027a3.665,3.665,0,0,0-2.706,0,19.814,19.814,0,0,1-1.074-4.212,2.427,2.427,0,1,1,4.854,0,1.826,1.826,0,0,1-.016.211c-.019.161-.056.367-.109.612A.626.626,0,1,0,126,4.765c.04-.185.071-.352.1-.5.025-.029.045-.05.059-.064a2.427,2.427,0,0,1,3.432,3.432c-.014.014-.034.033-.061.057a34.128,34.128,0,0,0-4.311,1.173,3.706,3.706,0,0,0-.289-.289c.152-.48.292-.932.417-1.347A.626.626,0,0,0,124.923,6.444Zm4.665,11.98a2.427,2.427,0,0,1-3.432,0c-.013-.013-.032-.034-.056-.061a34.135,34.135,0,0,0-1.173-4.311,3.714,3.714,0,0,0,.289-.289,34.125,34.125,0,0,0,4.311,1.173c.028.024.048.043.061.056A2.429,2.429,0,0,1,129.588,18.424Zm.519-4.686a19.821,19.821,0,0,1-4.212-1.074,3.665,3.665,0,0,0,0-2.706,19.818,19.818,0,0,1,4.212-1.074,2.427,2.427,0,0,1,0,4.854Z" transform="translate(-111.164)"/></g></svg>