<svg xmlns="http://www.w3.org/2000/svg" width="50.622" height="35.407" viewBox="0 0 50.622 35.407"><defs><style>.a{fill:#888;}</style></defs><g transform="translate(0 -76.943)"><g transform="translate(0 76.943)"><path class="a" d="M.8,84.55a.8.8,0,0,1-.8-.8V80.64a3.7,3.7,0,0,1,3.7-3.7H46.925a3.7,3.7,0,0,1,3.7,3.7v28.013a3.7,3.7,0,0,1-3.7,3.7H3.7a3.7,3.7,0,0,1-3.7-3.7V86.344a.8.8,0,1,1,1.6,0v22.309a2.1,2.1,0,0,0,2.1,2.1H46.925a2.1,2.1,0,0,0,2.1-2.1V80.64a2.1,2.1,0,0,0-2.1-2.1H3.7a2.1,2.1,0,0,0-2.1,2.1v3.11A.8.8,0,0,1,.8,84.55Z" transform="translate(0 -76.943)"/><g transform="translate(5.329 11.764)"><path class="a" d="M603.8,444.763v-6.242h1.059v.5a1.708,1.708,0,0,1,1.392-.621,2.392,2.392,0,0,1,0,4.746,1.709,1.709,0,0,1-1.392-.633v2.249Zm1.059-4.574v1.151a1.31,1.31,0,0,0,1.208.805c.7,0,1.174-.523,1.174-1.386s-.472-1.369-1.174-1.369a1.3,1.3,0,0,0-1.208.8" transform="translate(-577.733 -436.036)"/><path class="a" d="M694.7,443.616a1.33,1.33,0,0,1,1.254-1.387l1.8-.23v-.224a.362.362,0,0,0-.391-.414H695.1V440.4h2.3c.915,0,1.415.449,1.415,1.243v3.25h-1.07v-.547a1.733,1.733,0,0,1-1.484.685,1.418,1.418,0,0,1-1.565-1.415m1.824.552a1.318,1.318,0,0,0,1.225-.754v-.564l-1.375.19c-.38.052-.593.253-.593.581,0,.351.27.547.742.547" transform="translate(-663.403 -437.92)"/><path class="a" d="M776.4,445.687h.771a.489.489,0,0,0,.523-.4l.138-.4L776.2,440.4h1.1l1.018,3.13h.023l.972-3.13h1.087l-1.789,5.16c-.242.708-.564,1.087-1.352,1.087H776.4Z" transform="translate(-740.214 -437.92)"/><path class="a" d="M154.583,409.117a4.123,4.123,0,0,0,2.911-1.03,2.668,2.668,0,0,0,.794-1.933,2.5,2.5,0,0,0-.736-1.8,3.848,3.848,0,0,0-2.025-1l-1.415-.276c-.587-.109-.92-.4-.92-.811,0-.535.518-.9,1.346-.9a1.747,1.747,0,0,1,1.254.46,1.393,1.393,0,0,1,.351.754l2.042-.46a2.522,2.522,0,0,0-.754-1.53,4.126,4.126,0,0,0-2.917-1.082,3.992,3.992,0,0,0-2.71.955,2.688,2.688,0,0,0-.863,1.991,2.289,2.289,0,0,0,.662,1.691,4.032,4.032,0,0,0,1.933.978l1.4.334c.7.167,1.013.426,1.013.886,0,.57-.518.9-1.363.9a1.893,1.893,0,0,1-1.415-.535,1.285,1.285,0,0,1-.368-.846l-2.1.46a2.626,2.626,0,0,0,.794,1.622,4.261,4.261,0,0,0,3.089,1.168m15.545,0a4.367,4.367,0,0,0,3.13-1.2,4.091,4.091,0,0,0,1.1-1.858l-2.152-.719a2.043,2.043,0,0,1-.57.955,2.092,2.092,0,0,1-1.513.57,2.329,2.329,0,0,1-1.64-.662,2.669,2.669,0,0,1-.685-1.9,2.64,2.64,0,0,1,.685-1.9,2.24,2.24,0,0,1,1.622-.644,1.952,1.952,0,0,1,1.456.552,2.343,2.343,0,0,1,.552.978l2.192-.736a4.19,4.19,0,0,0-1.03-1.824,4.482,4.482,0,0,0-3.222-1.231,4.652,4.652,0,0,0-3.331,1.346,5.034,5.034,0,0,0,.035,6.927,4.7,4.7,0,0,0,3.366,1.34m-7.439,0a3.077,3.077,0,0,0,1.933-.552v-1.991a2.126,2.126,0,0,1-1.237.368,1.033,1.033,0,0,1-1.2-1.214V397.3h-2.434v2.485h4.861v2.359h-4.861v4.183a2.813,2.813,0,0,0,.719,2.008,3.081,3.081,0,0,0,2.215.782" transform="translate(-150.7 -397.3)"/></g></g></g></svg>