<svg xmlns="http://www.w3.org/2000/svg" width="15.687" height="17.017" viewBox="0 0 15.687 17.017"><defs><style>.a{fill:#ba1f6a;}.b{fill:#888;}</style></defs><g transform="translate(-20)"><g transform="translate(20)"><g transform="translate(0)"><path class="a" d="M384.887,14.685l1.8,1.505a.665.665,0,1,0,.851-1.021l-1.8-1.505a.665.665,0,1,0-.851,1.021Z" transform="translate(-372.528 -13.06)"/><path class="a" d="M33.71,16.345a.662.662,0,0,0,.425-.154l1.8-1.505a.665.665,0,1,0-.851-1.021l-1.8,1.505a.665.665,0,0,0,.426,1.175Z" transform="translate(-32.611 -13.061)"/><path class="b" d="M33.39,3.627a7.785,7.785,0,0,0-4.882-2.269V.665a.665.665,0,0,0-1.329,0v.693A7.844,7.844,0,0,0,22.3,14.719a7.845,7.845,0,0,0,10.195.772.665.665,0,1,0-.789-1.07,6.505,6.505,0,1,1,1.851-2.112.665.665,0,1,0,1.165.641,7.848,7.848,0,0,0-1.33-9.323Z" transform="translate(-20)"/><path class="a" d="M220.568,151.3a.665.665,0,0,0-.935.1l-2.1,2.59a1.331,1.331,0,1,0,1.033.837l2.1-2.59A.665.665,0,0,0,220.568,151.3Z" transform="translate(-209.486 -146.124)"/></g></g></g></svg>