<svg xmlns="http://www.w3.org/2000/svg" width="26.648" height="26.648" viewBox="0 0 26.648 26.648"><defs><style>.a,.b{fill:#323232;}.a{stroke:#313131;stroke-width:0.4px;}.c{fill:#ba1f6a;}</style></defs><g transform="translate(0.2 0.2)"><g transform="translate(0 3.291)"><path class="a" d="M21.29,83.755a.43.43,0,0,0-.6-.073A12.264,12.264,0,0,1,.86,74.027a12.291,12.291,0,0,1,4.025-9.084.43.43,0,1,0-.578-.637,13.124,13.124,0,0,0,16.91,20.053A.43.43,0,0,0,21.29,83.755Z" transform="translate(0 -64.194)"/></g><g transform="translate(5.537 2.207)"><path class="b" d="M108.782,43.226a.433.433,0,1,0-.107.612l.015-.011A.43.43,0,0,0,108.782,43.226Z" transform="translate(-108.002 -43.051)"/></g><g transform="translate(5.541 0)"><g transform="translate(0 0)"><path class="a" d="M124.948,3.844a13.126,13.126,0,0,0-16.676-1.563.43.43,0,1,0,.485.71,12.264,12.264,0,0,1,15.7,18.683.43.43,0,1,0,.616.6,13.123,13.123,0,0,0-.127-18.43Z" transform="translate(-108.085 0)"/></g></g><g transform="translate(5.057 5.057)"><path class="c" d="M114.353,104h-4.921V99.076a.43.43,0,0,0-.43-.43H104.43a.43.43,0,0,0-.43.43V104H99.079a.43.43,0,0,0-.43.43V109a.43.43,0,0,0,.43.43H104v4.921a.43.43,0,0,0,.43.43H109a.43.43,0,0,0,.43-.43v-4.921h4.921a.43.43,0,0,0,.43-.43v-4.572A.43.43,0,0,0,114.353,104Zm-.43,4.572H109a.43.43,0,0,0-.43.43v4.921H104.86V109a.43.43,0,0,0-.43-.43H99.509v-3.712h4.921a.43.43,0,0,0,.43-.43V99.506h3.712v4.921a.43.43,0,0,0,.43.43h4.921Z" transform="translate(-98.649 -98.646)"/></g></g></svg>