<svg xmlns="http://www.w3.org/2000/svg" width="50.627" height="35.411" viewBox="0 0 50.627 35.411"><defs><style>.a{fill:#888;}</style></defs><path class="a" d="M49.828,104.746a.8.8,0,0,1,.8.8v3.111a3.7,3.7,0,0,1-3.7,3.7H3.7a3.7,3.7,0,0,1-3.7-3.7V80.641a3.7,3.7,0,0,1,3.7-3.7H46.93a3.7,3.7,0,0,1,3.7,3.7v22.311a.8.8,0,1,1-1.6,0V80.641a2.1,2.1,0,0,0-2.1-2.1H3.7a2.1,2.1,0,0,0-2.1,2.1v28.015a2.1,2.1,0,0,0,2.1,2.1H46.929a2.1,2.1,0,0,0,2.1-2.1v-3.111A.8.8,0,0,1,49.828,104.746Z" transform="translate(0 -76.943)"/><path class="a" d="M6.169,1.77a2.054,2.054,0,0,1-1.646.777,2.329,2.329,0,0,1,.588-1.7A2.455,2.455,0,0,1,6.744,0a2.48,2.48,0,0,1-.575,1.77m.568.9c-.908-.052-1.685.516-2.116.516S3.523,2.7,2.8,2.711A2.683,2.683,0,0,0,.525,4.1c-.98,1.685-.255,4.181.692,5.552.464.679,1.019,1.424,1.751,1.4.692-.026.967-.451,1.8-.451s1.084.451,1.816.438c.758-.013,1.235-.679,1.7-1.359a5.958,5.958,0,0,0,.758-1.561A2.461,2.461,0,0,1,7.567,5.872a2.513,2.513,0,0,1,1.2-2.1,2.589,2.589,0,0,0-2.025-1.1M11.983.777V10.961h1.581V7.479h2.188a3.232,3.232,0,0,0,3.4-3.358A3.194,3.194,0,0,0,15.8.777H11.983ZM13.563,2.11h1.822a1.9,1.9,0,0,1,2.156,2.018,1.907,1.907,0,0,1-2.162,2.025H13.563Zm8.479,8.93a2.615,2.615,0,0,0,2.332-1.3h.033v1.222H25.87V5.892c0-1.47-1.176-2.417-2.985-2.417-1.679,0-2.92.96-2.966,2.28h1.424a1.388,1.388,0,0,1,1.5-1.039c.967,0,1.509.451,1.509,1.28v.562l-1.973.118c-1.836.111-2.828.862-2.828,2.169A2.241,2.241,0,0,0,22.042,11.039Zm.425-1.208c-.843,0-1.378-.4-1.378-1.026,0-.64.516-1.012,1.5-1.071l1.757-.111V8.2A1.718,1.718,0,0,1,22.467,9.831Zm5.356,3.9c1.542,0,2.267-.588,2.9-2.371L33.5,3.573H31.893L30.031,9.589H30L28.137,3.573H26.484l2.678,7.414-.144.451A1.257,1.257,0,0,1,27.686,12.5c-.124,0-.366-.013-.464-.026v1.222A4.354,4.354,0,0,0,27.823,13.731Z" transform="translate(8.73 10.846)"/></svg>