<svg xmlns="http://www.w3.org/2000/svg" width="17.429" height="25.002" viewBox="0 0 17.429 25.002"><defs><style>.a{fill:#888;}.b{fill:#ba1f6a;}</style></defs><g transform="translate(-77.538)"><g transform="translate(82.094 17.32)"><g transform="translate(0)"><path class="a" d="M178.995,355.532a.941.941,0,0,0-.2-.475,1.276,1.276,0,0,0-.931-.378,3.6,3.6,0,0,0-2.064,1.054.743.743,0,0,0-.406-.121h-.783a.742.742,0,0,0-.406.121,3.6,3.6,0,0,0-2.064-1.054,1.279,1.279,0,0,0-.931.378.941.941,0,0,0-.2.475,5.944,5.944,0,0,0,0,2.769.947.947,0,0,0,.2.48,1.274,1.274,0,0,0,.92.378h.011a2.4,2.4,0,0,0,1.141-.364l-.4,1.43a1.685,1.685,0,0,0,1.623,2.137h1a1.685,1.685,0,0,0,1.623-2.135l-.4-1.429a2.4,2.4,0,0,0,1.136.361h.011a1.274,1.274,0,0,0,.92-.378.949.949,0,0,0,.2-.48A5.957,5.957,0,0,0,178.995,355.532Zm-4.4.827a.016.016,0,0,1,.016-.015h.783a.016.016,0,0,1,.016.016v1.119a.016.016,0,0,1,0,.01h0a.015.015,0,0,1-.011,0h-.783a.016.016,0,0,1-.011,0h0a.016.016,0,0,1,0-.011Zm-1.35,1.586a2.123,2.123,0,0,1-1.11.483.537.537,0,0,1-.371-.129c-.009-.028-.025-.08-.046-.167a5.211,5.211,0,0,1,0-2.426c.021-.085.036-.136.045-.164a.534.534,0,0,1,.366-.129h0a3.25,3.25,0,0,1,1.709.991l.02.02v.994l-.021.022s-.062.064-.167.158h0A5.349,5.349,0,0,1,173.242,357.944Zm3.015,3.309a.944.944,0,0,1-.758.376h-1a.953.953,0,0,1-.918-1.209l.642-2.3h0l.041.022h0a.805.805,0,0,0,.076.033l.02.007.033.011.039.01.031.006.05.008.021,0c.022,0,.044,0,.067,0h.783c.022,0,.044,0,.067,0l.021,0,.048-.007.03-.006.042-.011.034-.011.021-.008a.751.751,0,0,0,.12-.058l0,0,.64,2.3A.943.943,0,0,1,176.257,361.254Zm2.027-3.123c-.021.087-.036.139-.046.167a.539.539,0,0,1-.37.129,2.9,2.9,0,0,1-1.525-.817l-.008-.009c-.09-.081-.149-.14-.168-.158l-.007-.007-.02-.02v-.994l.022-.022a5.069,5.069,0,0,1,.6-.506,2.123,2.123,0,0,1,1.11-.483h.005a.536.536,0,0,1,.366.129c.009.028.024.078.045.164A5.209,5.209,0,0,1,178.284,358.13Z" transform="translate(-170.841 -354.68)"/></g></g><g transform="translate(77.538)"><path class="b" d="M94.809,6.335a2.5,2.5,0,0,0-.78-1.137,1.316,1.316,0,0,0-1.007-.3,1.186,1.186,0,0,0-.4-.733,2.461,2.461,0,0,0-.086-1.445,2.5,2.5,0,0,0-.78-1.137,1.314,1.314,0,0,0-1.007-.3C90.672.55,89.839,0,88.791,0s-1.875.546-1.963,1.266a1.194,1.194,0,0,0-.575.093,1.176,1.176,0,0,0-.635-.085C85.535.55,84.7,0,83.654,0s-1.875.546-1.963,1.265a1.878,1.878,0,0,0-1.726,1.45,2.5,2.5,0,0,0-.1,1.4,1.21,1.21,0,0,0-.444.77A1.878,1.878,0,0,0,77.7,6.336,1.811,1.811,0,0,0,78.233,8.6a1.414,1.414,0,0,0,.05,1.274l-.01.012.655-.091c.025-.063-.188-.659-.017-.9.078-.109.111-.117.279-.214A.366.366,0,0,0,79.008,8h-.017a1.163,1.163,0,0,1-.392-.036c-.294-.1-.446-.719-.211-1.387s.74-1.053,1.034-.949a.908.908,0,0,1,.242.146.366.366,0,0,0,.567-.419,1.015,1.015,0,0,1-.082-.345c0-.243.321-.507.8-.613l.018,0,.085-.016.07-.01.037,0c.033,0,.067-.007.1-.009h.012c.039,0,.078,0,.118,0h.056a1.939,1.939,0,0,1,.806.2,1.075,1.075,0,0,1,.194.133,1.427,1.427,0,0,0,.162.219.317.317,0,0,1,.019.077.3.3,0,0,1,0,.03,1.127,1.127,0,0,1-.108.409.365.365,0,0,0,.123.439.336.336,0,0,0,.052.031l.018.007a.344.344,0,0,0,.037.015l.022.005.035.007.024,0,.025,0h.021a.373.373,0,0,0,.052-.007l.008,0a.311.311,0,0,0,.051-.016l.006,0a.339.339,0,0,0,.05-.025l0,0a.405.405,0,0,0,.048-.035,1.658,1.658,0,0,1,.131-.1.822.822,0,0,1,.188-.106h0l.027-.008.024,0h.005a.9.9,0,0,1,.72.465L84.2,6.1l.022.033c.013.019.025.038.037.058l.007.011.034.059,0,.009c.025.047.05.1.072.145l0,.01c.009.021.018.042.026.063l.007.017c.01.025.02.05.028.075s.012.035.018.053a1.931,1.931,0,0,1,.079.827.641.641,0,0,1-.281.5l-.027.011-.034.01A1.283,1.283,0,0,1,83.857,8h-.051a.363.363,0,0,0-.267.137l-.01.012c-.007.01-.013.021-.02.032L83.5,8.2c0,.01-.009.021-.013.031s-.007.015-.009.023a.006.006,0,0,0,0,0v0c0,.01,0,.02-.006.029a.28.28,0,0,0-.005.028c0,.011,0,.022,0,.033s0,.018,0,.027,0,.022,0,.033,0,.018,0,.026.006.021.009.032a.252.252,0,0,0,.008.025.32.32,0,0,0,.014.029.228.228,0,0,0,.012.024.315.315,0,0,0,.018.026.25.25,0,0,0,.017.023c.007.008.014.015.022.023a.28.28,0,0,0,.021.021l.022.017,0,0,.02.015.008,0h0l.009.005a1.269,1.269,0,0,1,.22.157h0l.022.021,0,0,.012.013.012.013c0,.005.007.011.011.017a.083.083,0,0,1,.042.073V9l0,.009h0a.407.407,0,0,0,0,.049c0,.01,0,.02,0,.03l0,.025c0,.011,0,.021.007.032.245-.027.468-.052.671-.072a.556.556,0,0,1,.045-.16c0-.012,0-.024-.007-.036s-.009-.037-.015-.055-.007-.026-.011-.039-.014-.039-.021-.058-.008-.022-.012-.033c-.011-.027-.024-.054-.038-.08l0-.007a1.1,1.1,0,0,0,.39-.334,1.418,1.418,0,0,0,.64.593l.21.113a1.826,1.826,0,0,1,.5.015c.125-.024.25-.057.372-.089a.074.074,0,0,1,.021,0,1.417,1.417,0,0,0,.752-.681,1.168,1.168,0,0,0,.268.287,1.08,1.08,0,0,0,.156.1.95.95,0,0,0-.041.087l-.011.029c-.008.021-.016.041-.022.062s-.007.025-.01.037-.011.039-.015.058-.005.028-.008.041a.536.536,0,0,1-.025.09,3.8,3.8,0,0,1,.393,0c.129.007.249.021.357.038a.214.214,0,0,1,.011-.063.3.3,0,0,1,.019-.041l0-.008a.348.348,0,0,1,.026-.04h0l.011-.013.013-.014,0,0a1.161,1.161,0,0,1,.244-.179h0l.007,0h0l.02-.012.016-.012.023-.019.022-.022.02-.021a.306.306,0,0,0,.019-.025c.005-.008.011-.016.015-.023a.306.306,0,0,0,.014-.028c0-.008.008-.017.011-.025a.311.311,0,0,0,.009-.03c0-.009,0-.018.007-.027s0-.021,0-.031a.268.268,0,0,0,0-.028c0-.011,0-.021,0-.032s0-.019,0-.028a.243.243,0,0,0-.007-.033c0-.007,0-.014,0-.021l0-.006V8.251a.225.225,0,0,0-.011-.025c0-.009-.007-.018-.011-.026l-.016-.027a.258.258,0,0,0-.016-.024c-.006-.008-.013-.015-.019-.022L88.933,8.1l-.019-.016c-.009-.007-.017-.015-.026-.021l-.017-.01a.294.294,0,0,0-.034-.02l-.011,0A.358.358,0,0,0,88.7,8h-.053a1.283,1.283,0,0,1-.344-.026l-.033-.01a.549.549,0,0,1-.293-.422,1.787,1.787,0,0,1,.082-.965c.009-.025.019-.05.028-.075l.007-.017c.008-.021.017-.042.026-.063l0-.011c.022-.05.046-.1.072-.145l.005-.01.033-.058.007-.013.036-.057.023-.034.011-.016a.9.9,0,0,1,.72-.466h0l.026,0,.029.008a.923.923,0,0,1,.242.146.366.366,0,0,0,.567-.419,1.014,1.014,0,0,1-.082-.345c0-.01,0-.02,0-.03a.322.322,0,0,1,.019-.077A1.427,1.427,0,0,0,90,4.683a1.063,1.063,0,0,1,.194-.133A1.926,1.926,0,0,1,91,4.35h.056a2.081,2.081,0,0,1,.26.016h0c.04,0,.079.011.118.019l.019,0,.095.021.039.01.063.019c.389.124.641.356.641.571a1.124,1.124,0,0,1-.108.409.366.366,0,0,0,.578.418,1.132,1.132,0,0,1,.318-.209.55.55,0,0,1,.493.146,1.787,1.787,0,0,1,.54.8c.235.669.083,1.284-.211,1.387A1.164,1.164,0,0,1,93.511,8a.366.366,0,0,0-.2.683,1.026,1.026,0,0,1,.279.214.69.69,0,0,1-.059.718c-.033-.008-.05-.011-.051-.008a6.5,6.5,0,0,0,.713.283,1.372,1.372,0,0,0,.2-.735,1.352,1.352,0,0,0-.128-.552A1.8,1.8,0,0,0,94.809,6.335ZM83.654,4.642a.673.673,0,0,1-.444-.167,1.3,1.3,0,0,0-.175-.236.678.678,0,1,1,.62.4Zm0-2.089a1.412,1.412,0,0,0-1.4,1.207,2.591,2.591,0,0,0-.49-.114l-.044-.005-.049-.006h-.013c-.09-.008-.182-.013-.276-.013l-.106,0h-.017l-.094.005h-.006a2.643,2.643,0,0,0-.618.12,1.912,1.912,0,0,1,.11-.791c.194-.551.677-1.074,1.034-.949a.908.908,0,0,1,.242.146.366.366,0,0,0,.567-.419,1.015,1.015,0,0,1-.082-.345c0-.377.654-.66,1.238-.66s1.238.282,1.238.66a1.124,1.124,0,0,1-.108.409.366.366,0,0,0,.578.418,1.132,1.132,0,0,1,.318-.209.488.488,0,0,1,.409.086l.024.016.056.041.012.01c.025.02.049.041.073.063l0,0c.025.024.051.05.075.077l.006.007c.024.027.048.056.072.085l0,0a1.889,1.889,0,0,1,.193.309l.006.013c.017.035.034.07.049.107l.006.016c.016.037.03.075.044.113s.019.056.027.084l.007.025c.006.021.012.041.017.061s0,.018.007.027.01.044.015.066c0,.006,0,.012,0,.019.006.028.011.056.015.084,0,.006,0,.012,0,.019,0,.022.006.043.009.065l0,.026c0,.02,0,.04,0,.059v.024c0,.027,0,.054,0,.08h0q0,.04,0,.078s0,.005,0,.008a2.77,2.77,0,0,0-.442-.06h-.021c-.047,0-.095,0-.143,0a2.579,2.579,0,0,0-1.161.26A1.414,1.414,0,0,0,83.654,2.553Zm2.569,5.71a.679.679,0,1,1,.679-.679A.679.679,0,0,1,86.222,8.263Zm1.338-2.356c-.035.063-.068.13-.1.2l-.01.023c-.011.026-.022.052-.033.078l-.011.027c-.013.034-.026.068-.039.1-.031.088-.058.177-.079.265,0,.017-.008.033-.011.05A1.408,1.408,0,0,0,85.215,6.6q-.032-.13-.079-.262c-.015-.042-.031-.084-.047-.125l-.01-.024c-.017-.042-.035-.082-.054-.122l0,0c-.02-.042-.04-.083-.062-.123l0,0c-.022-.042-.045-.082-.069-.121h0a.365.365,0,0,0,.175-.456,1.015,1.015,0,0,1-.082-.345c0-.377.654-.66,1.238-.66H86.3a1.851,1.851,0,0,1,.876.25.537.537,0,0,1,.287.408,1.126,1.126,0,0,1-.108.409.366.366,0,0,0,.123.439.421.421,0,0,0,.046.028l.016.007.024.011ZM89.41,4.24a1.277,1.277,0,0,0-.175.236.678.678,0,1,1,.235-.512A.685.685,0,0,1,89.41,4.24Zm2.549-.47a2.636,2.636,0,0,0-.654-.138h-.02l-.09-.005H91.17l-.111,0-.114,0a2.668,2.668,0,0,0-.758.137,1.41,1.41,0,0,0-2.643-.453c0-.033-.009-.066-.014-.1l0-.029c-.007-.043-.016-.086-.025-.129l0-.017c-.011-.047-.023-.094-.036-.141l-.009-.033c-.014-.047-.029-.095-.045-.142h0c-.014-.04-.029-.078-.044-.117l-.012-.028c-.016-.038-.032-.076-.05-.113l0-.007c-.017-.036-.034-.071-.052-.105L87.23,2.32c-.02-.036-.04-.072-.06-.107h0a.366.366,0,0,0,.465-.475,1.015,1.015,0,0,1-.082-.345c0-.377.654-.66,1.238-.66s1.238.282,1.238.66a1.124,1.124,0,0,1-.108.409.366.366,0,0,0,.578.418,1.139,1.139,0,0,1,.318-.209.55.55,0,0,1,.493.146,1.782,1.782,0,0,1,.54.8A1.9,1.9,0,0,1,91.959,3.769Z" transform="translate(-77.538)"/><path class="b" d="M128.851,126.42a1.411,1.411,0,1,0,1.411,1.411A1.412,1.412,0,0,0,128.851,126.42Zm0,2.089a.679.679,0,1,1,.679-.679A.679.679,0,0,1,128.851,128.509Z" transform="translate(-125.003 -120.247)"/><path class="b" d="M326.931,125.32a1.411,1.411,0,1,0,1.411,1.411A1.412,1.412,0,0,0,326.931,125.32Zm0,2.09a.679.679,0,1,1,.679-.679A.679.679,0,0,1,326.931,127.41Z" transform="translate(-313.411 -119.2)"/></g><g transform="translate(78.107 8.952)"><path class="a" d="M105.381,184.44a.625.625,0,0,0-.108-.179,2.36,2.36,0,0,0-.738-.269,35.219,35.219,0,0,0-4.954-.612q-.363-.02-.741-.034v0l-.13-.006a35.112,35.112,0,0,0-9.385.932.627.627,0,0,0-.1.167l0,.012a.618.618,0,0,0,.091.6l4.722,6.124a.366.366,0,1,0,.58-.447l-3.014-3.91a1.785,1.785,0,0,0,.2-.03,3.028,3.028,0,0,0,.97-.473,1.44,1.44,0,0,1,1.657-.239,2.3,2.3,0,0,0,2.1-.146,2.222,2.222,0,0,1,.835-.265h0a2.222,2.222,0,0,1,.836.27,2.3,2.3,0,0,0,2.1.158,1.439,1.439,0,0,1,1.655.249,3.029,3.029,0,0,0,.966.479c.025.006.051.01.077.015l-3,3.886a.366.366,0,1,0,.58.447l4.717-6.119A.619.619,0,0,0,105.381,184.44Zm-1.839,1.684a1.558,1.558,0,0,1-.462-.017,2.479,2.479,0,0,1-.728-.377,2.115,2.115,0,0,0-2.26-.34,1.627,1.627,0,0,1-1.589-.12,2.116,2.116,0,0,0-2.283-.007,1.627,1.627,0,0,1-1.59.11,2.115,2.115,0,0,0-2.262.326,2.473,2.473,0,0,1-.731.373,1.875,1.875,0,0,1-.614,0L90,184.745c.5-.082,1.344-.213,2.346-.341.937-.119,2.011-.235,3.071-.3h0c.413-.027.806-.045,1.177-.056h.042l.173,0h.682l.127,0h.1l.181,0h.047c.39.011.8.03,1.234.058h0c.648.042,1.3.1,1.916.167,1.5.161,2.824.364,3.5.476Z" transform="translate(-89.181 -183.323)"/></g></g></svg>