<svg xmlns="http://www.w3.org/2000/svg" width="26.406" height="26.406" viewBox="0 0 26.406 26.406"><defs><style>.a{fill:#ba1f6a;}.b{fill:#323232;}</style></defs><path class="a" d="M156,161.157a1.031,1.031,0,0,0,1.031,1.031h3.094v3.094a1.031,1.031,0,0,0,2.063,0v-3.094h3.094a1.031,1.031,0,0,0,0-2.063h-3.094v-3.094a1.031,1.031,0,0,0-2.063,0v3.094h-3.094A1.031,1.031,0,0,0,156,161.157Z" transform="translate(-147.955 -147.955)"/><path class="b" d="M134.172,15.137l1.334-.553a1.031,1.031,0,1,0-.79-1.906l-1.334.553a1.031,1.031,0,1,0,.79,1.906Z" transform="translate(-125.9 -11.95)"/><path class="b" d="M13.2,0a1.031,1.031,0,1,0,0,2.063A11.14,11.14,0,1,1,2.063,13.2,1.031,1.031,0,1,0,0,13.2,13.2,13.2,0,1,0,13.2,0Z"/><path class="b" d="M60.984,62.005,62,60.984a1.031,1.031,0,0,0-1.459-1.459l-1.021,1.021a1.031,1.031,0,0,0,1.459,1.459Z" transform="translate(-56.168 -56.169)"/><path class="b" d="M13.238,136.065a1.032,1.032,0,0,0,1.348-.558l.553-1.334a1.031,1.031,0,0,0-1.906-.79l-.553,1.334A1.032,1.032,0,0,0,13.238,136.065Z" transform="translate(-11.951 -125.9)"/></svg>