<svg xmlns="http://www.w3.org/2000/svg" width="37.604" height="35.649" viewBox="0 0 37.604 35.649"><defs><style>.a{fill:#ba1f6a;}.b{fill:#888;}.c{fill:none;stroke:#ba1f6a;stroke-linecap:round;}</style></defs><g transform="translate(0 -11.01)"><g transform="translate(12.284 31.916)"><g transform="translate(0 0)"><path class="a" d="M168.715,301.247a.74.74,0,0,0-.042-.137.724.724,0,0,0-.068-.127.75.75,0,0,0-.092-.112.733.733,0,0,0-.8-.159.726.726,0,0,0-.127.068.714.714,0,0,0-.2.2.724.724,0,0,0-.068.127.742.742,0,0,0-.042.137.724.724,0,0,0-.015.143.738.738,0,0,0,.015.144.778.778,0,0,0,.042.137.745.745,0,0,0,.068.126.706.706,0,0,0,.091.112.754.754,0,0,0,.112.092.726.726,0,0,0,.127.068.743.743,0,0,0,.137.042.724.724,0,0,0,.143.014.74.74,0,0,0,.519-.215.731.731,0,0,0,.159-.238.776.776,0,0,0,.042-.137.735.735,0,0,0,.014-.144A.722.722,0,0,0,168.715,301.247Z" transform="translate(-167.26 -300.657)"/></g></g><g transform="translate(0 10.614)"><g transform="translate(0 0)"><path class="b" d="M36.869,45.19H35.348V34.114a2.2,2.2,0,0,0-2.2-2.2H31.9V24.671a2.2,2.2,0,0,0-2.2-2.2H27.442V20.34c.5-.127-1.973-.127-1.469,0v2.132H19.536V19.315c.5-.127-1.973-.127-1.469,0v3.157H11.63v-2.13c.516-.13-1.984-.13-1.469,0v2.13H7.907a2.2,2.2,0,0,0-2.2,2.2v7.245H4.454a2.2,2.2,0,0,0-2.2,2.2V45.19H.734a.734.734,0,0,0,0,1.469H36.869a.735.735,0,0,0,0-1.469ZM7.907,23.942H29.7a.73.73,0,0,1,.73.73v2.306a3.553,3.553,0,0,1-1.084.148,3.44,3.44,0,0,1-2.228-.755,5.122,5.122,0,0,0-6.085,0,3.664,3.664,0,0,1-4.456,0,4.863,4.863,0,0,0-3.043-1,4.863,4.863,0,0,0-3.043,1,3.439,3.439,0,0,1-2.228.755,3.556,3.556,0,0,1-1.083-.148V24.671h0A.73.73,0,0,1,7.907,23.942ZM33.879,45.19H3.725V38.131a3.728,3.728,0,0,1,1.493.694,4.863,4.863,0,0,0,3.043,1,4.863,4.863,0,0,0,3.043-1,3.439,3.439,0,0,1,2.228-.755,3.439,3.439,0,0,1,2.228.755,5.121,5.121,0,0,0,6.085,0,3.664,3.664,0,0,1,4.456,0,5.122,5.122,0,0,0,6.086,0,3.729,3.729,0,0,1,1.494-.694Zm0-8.545a4.957,4.957,0,0,0-2.308.957,3.665,3.665,0,0,1-4.456,0,5.122,5.122,0,0,0-6.085,0,3.664,3.664,0,0,1-4.456,0,4.863,4.863,0,0,0-3.043-1,4.863,4.863,0,0,0-3.043,1,3.439,3.439,0,0,1-2.228.755A3.439,3.439,0,0,1,6.033,37.6a4.957,4.957,0,0,0-2.308-.957V34.114a.73.73,0,0,1,.73-.73h5.636a.734.734,0,1,0,0-1.469H7.177V28.491a5.374,5.374,0,0,0,1.083.1,4.863,4.863,0,0,0,3.043-1,3.439,3.439,0,0,1,2.228-.755,3.439,3.439,0,0,1,2.228.755,5.121,5.121,0,0,0,6.085,0,3.664,3.664,0,0,1,4.456,0,4.864,4.864,0,0,0,3.043,1,5.377,5.377,0,0,0,1.084-.1v3.425H15.947a.734.734,0,1,0,0,1.469h17.2a.73.73,0,0,1,.73.73Z" transform="translate(0 -10.614)"/><path class="c" d="M26.856,1.921s2.281,3.092,2.281,5.013S26.856,9.3,26.856,9.3s-2.63-.443-2.63-2.364S26.856,1.921,26.856,1.921Z" transform="translate(-0.127 0.279)"/><path class="c" d="M26.856,1.921s2.281,3.092,2.281,5.013S26.856,9.3,26.856,9.3s-2.63-.443-2.63-2.364S26.856,1.921,26.856,1.921Z" transform="translate(-8.026 -0.721)"/><path class="c" d="M26.856,1.921s2.281,3.092,2.281,5.013S26.856,9.3,26.856,9.3s-2.63-.443-2.63-2.364S26.856,1.921,26.856,1.921Z" transform="translate(-16.026 0.279)"/></g></g><g transform="translate(5.709 42.774)"><path class="a" d="M79.184,449.091a.743.743,0,0,0-.042-.137.724.724,0,0,0-.159-.239.735.735,0,0,0-1.039,0,.737.737,0,0,0-.159.239.742.742,0,0,0-.042.137.745.745,0,0,0,0,.287.742.742,0,0,0,.042.137.738.738,0,0,0,.159.239.741.741,0,0,0,.52.215.729.729,0,0,0,.143-.015.742.742,0,0,0,.375-.2.724.724,0,0,0,.159-.239.742.742,0,0,0,.042-.137.709.709,0,0,0,0-.287Z" transform="translate(-77.73 -448.5)"/></g><g transform="translate(13.602 40.578)"><path class="a" d="M186.655,419.185a.741.741,0,0,0-.042-.137.781.781,0,0,0-.068-.127.789.789,0,0,0-.092-.112.7.7,0,0,0-.112-.091.747.747,0,0,0-.126-.068.779.779,0,0,0-.137-.042.727.727,0,0,0-.287,0,.744.744,0,0,0-.137.042.726.726,0,0,0-.127.068.7.7,0,0,0-.112.091.737.737,0,0,0-.091.112.78.78,0,0,0-.068.127.741.741,0,0,0-.042.137.709.709,0,0,0,0,.287.742.742,0,0,0,.042.137.782.782,0,0,0,.068.127.737.737,0,0,0,.091.112.746.746,0,0,0,.112.091.724.724,0,0,0,.127.068.741.741,0,0,0,.137.042.723.723,0,0,0,.143.015.736.736,0,0,0,.144-.015.777.777,0,0,0,.137-.042.745.745,0,0,0,.238-.159.724.724,0,0,0,.159-.239.743.743,0,0,0,.042-.137.746.746,0,0,0,0-.287Z" transform="translate(-185.2 -418.594)"/></g><g transform="translate(22.094 42.774)"><path class="a" d="M302.274,449.085a.738.738,0,0,0-.042-.137.737.737,0,0,0-.159-.239.742.742,0,0,0-.112-.091.725.725,0,0,0-.127-.068.741.741,0,0,0-.137-.042.727.727,0,0,0-.287,0,.779.779,0,0,0-.137.042.745.745,0,0,0-.238.159.838.838,0,0,0-.092.112.776.776,0,0,0-.068.127.731.731,0,0,0,0,.562.779.779,0,0,0,.068.127.79.79,0,0,0,.092.112.707.707,0,0,0,.112.091.747.747,0,0,0,.126.068.782.782,0,0,0,.137.042.731.731,0,0,0,.754-.312.783.783,0,0,0,.068-.127.74.74,0,0,0,.042-.137.711.711,0,0,0,0-.287Z" transform="translate(-300.82 -448.494)"/></g><g transform="translate(30.427 41.017)"><path class="a" d="M415.734,425.161a.745.745,0,0,0-.042-.137.754.754,0,0,0-.068-.127.734.734,0,0,0-1.13-.112.787.787,0,0,0-.091.112.752.752,0,0,0-.068.127.74.74,0,0,0-.042.137.724.724,0,0,0-.014.143.732.732,0,0,0,.014.144.737.737,0,0,0,.109.264.79.79,0,0,0,.091.112.826.826,0,0,0,.112.091.777.777,0,0,0,.127.068.741.741,0,0,0,.137.042.73.73,0,0,0,.144.014.725.725,0,0,0,.61-.327.747.747,0,0,0,.068-.126.763.763,0,0,0,.042-.137.733.733,0,0,0,.015-.144A.724.724,0,0,0,415.734,425.161Z" transform="translate(-414.28 -424.57)"/></g><g transform="translate(23.118 29.012)"><g transform="translate(0 0)"><path class="a" d="M316.225,261.7a.776.776,0,0,0-.042-.137.73.73,0,0,0-.159-.238.706.706,0,0,0-.112-.092.746.746,0,0,0-.126-.068.78.78,0,0,0-.137-.042.727.727,0,0,0-.287,0,.744.744,0,0,0-.137.042.727.727,0,0,0-.127.068.73.73,0,0,0-.2.2.744.744,0,0,0-.068.126.778.778,0,0,0-.042.137.739.739,0,0,0-.015.144.725.725,0,0,0,.015.143.743.743,0,0,0,.042.137.752.752,0,0,0,.068.127.714.714,0,0,0,.2.2.723.723,0,0,0,.127.068.74.74,0,0,0,.137.042.723.723,0,0,0,.143.015.736.736,0,0,0,.144-.015.775.775,0,0,0,.137-.042.742.742,0,0,0,.126-.068.7.7,0,0,0,.112-.091.724.724,0,0,0,.159-.239.741.741,0,0,0,.042-.137.722.722,0,0,0,.014-.143A.735.735,0,0,0,316.225,261.7Z" transform="translate(-314.77 -261.114)"/></g></g><g transform="translate(13.529 28.012)"><path class="a" d="M185.664,248.086a.74.74,0,0,0-.042-.137.781.781,0,0,0-.068-.127.714.714,0,0,0-.2-.2.779.779,0,0,0-.127-.068.742.742,0,0,0-.137-.042.728.728,0,0,0-.287,0,.743.743,0,0,0-.137.042.729.729,0,0,0-.4.4.744.744,0,0,0-.042.137.746.746,0,0,0,0,.287.744.744,0,0,0,.042.137.782.782,0,0,0,.068.127.714.714,0,0,0,.2.2.781.781,0,0,0,.127.068.741.741,0,0,0,.137.042.71.71,0,0,0,.287,0,.741.741,0,0,0,.137-.042.738.738,0,0,0,.239-.159.828.828,0,0,0,.091-.112.78.78,0,0,0,.068-.127.74.74,0,0,0,.042-.137.745.745,0,0,0,0-.287Z" transform="translate(-184.21 -247.495)"/></g></g></svg>