<svg xmlns="http://www.w3.org/2000/svg" width="53.552" height="35.083" viewBox="0 0 53.552 35.083"><defs><style>.a{fill:#323232;}.b{fill:#ba1f6a;}</style></defs><g transform="translate(0 -4)"><g transform="translate(0 4)"><path class="a" d="M4.463,39.083H38.379a4.468,4.468,0,0,0,4.463-4.463V33.453h6.248a4.468,4.468,0,0,0,4.463-4.463V8.463A4.468,4.468,0,0,0,49.089,4h-24.1a.893.893,0,0,0,0,1.785h24.1a2.678,2.678,0,0,1,2.678,2.678v12.5H42.841V14.092A4.468,4.468,0,0,0,38.379,9.63H12.5V8.463a2.678,2.678,0,0,1,2.678-2.678h5.355a.893.893,0,0,0,0-1.785H15.173A4.468,4.468,0,0,0,10.71,8.463V9.63H4.463A4.468,4.468,0,0,0,0,14.092V34.62A4.468,4.468,0,0,0,4.463,39.083ZM38.379,37.3H4.463A2.678,2.678,0,0,1,1.785,34.62v-.893H41.056v.893A2.678,2.678,0,0,1,38.379,37.3ZM1.785,28.373H41.056v3.57H1.785Zm47.3,3.3H42.841V28.1h8.925v.893A2.678,2.678,0,0,1,49.089,31.668Zm2.678-8.925v3.57H42.841v-3.57ZM4.463,11.415H38.379a2.678,2.678,0,0,1,2.678,2.678v12.5H1.785v-12.5A2.678,2.678,0,0,1,4.463,11.415Z" transform="translate(0 -4)"/><path class="b" d="M29.908,24.818a4.887,4.887,0,0,0,3.124-1.126,4.859,4.859,0,0,0,3.124,1.126,4.909,4.909,0,1,0,0-9.818,4.859,4.859,0,0,0-3.124,1.126,4.909,4.909,0,1,0-3.124,8.691Zm6.248-8.033a3.124,3.124,0,1,1,0,6.248,3.084,3.084,0,0,1-1.976-.714,4.879,4.879,0,0,0,0-4.82,3.084,3.084,0,0,1,1.976-.714Zm-6.248,0a3.124,3.124,0,1,1-3.124,3.124A3.124,3.124,0,0,1,29.908,16.785Z" transform="translate(-2.686 -4.908)"/></g></g></svg>