<svg xmlns="http://www.w3.org/2000/svg" width="15.339" height="17.043" viewBox="0 0 15.339 17.043"><defs><style>.a{fill:#888;}.b{fill:#ba1f6a;}</style></defs><g transform="translate(-25.6)"><g transform="translate(25.6)"><path class="a" d="M33.269,0A7.678,7.678,0,0,0,25.6,7.669V9.942c0,3.916,3.44,7.1,7.669,7.1s7.669-3.186,7.669-7.1V7.669A7.678,7.678,0,0,0,33.269,0ZM27.3,12.5v.982a6.167,6.167,0,0,1-1.09-2.806,7.675,7.675,0,0,0,1.093,1.811S27.3,12.494,27.3,12.5Zm1.42,2.459a6.925,6.925,0,0,1-.852-.776V13.112a7.744,7.744,0,0,0,.852.73Zm1.42.85a7.276,7.276,0,0,1-.872-.468h.02V14.225a7.63,7.63,0,0,0,.852.446Zm1.42.477a7.487,7.487,0,0,1-.852-.248V14.9a7.577,7.577,0,0,0,.852.247Zm1.42.185a7.7,7.7,0,0,1-.852-.078V15.254a7.658,7.658,0,0,0,.852.078Zm1.42-.078a7.7,7.7,0,0,1-.852.078V15.332a7.651,7.651,0,0,0,.852-.078Zm1.42-.355a7.487,7.487,0,0,1-.852.248V15.145a7.576,7.576,0,0,0,.852-.247Zm.568-.228V14.671a7.674,7.674,0,0,0,.852-.446v1.113h.02A7.285,7.285,0,0,1,36.394,15.807Zm2.272-1.626a6.925,6.925,0,0,1-.852.776V13.842a7.708,7.708,0,0,0,.852-.73Zm.568-.7V12.5s0-.008,0-.012a7.679,7.679,0,0,0,1.093-1.811A6.166,6.166,0,0,1,39.234,13.48Zm-5.965,1.269A7.079,7.079,0,1,1,40.349,7.67,7.087,7.087,0,0,1,33.269,14.749Z" transform="translate(-25.6 0)"/></g><g transform="translate(27.37 1.77)"><path class="a" d="M84.663,53.18a5.9,5.9,0,1,0,5.9,5.9A5.906,5.906,0,0,0,84.663,53.18Zm0,11.209a5.31,5.31,0,1,1,5.309-5.31A5.316,5.316,0,0,1,84.663,64.389Z" transform="translate(-78.763 -53.18)"/></g><g transform="translate(30.926 3.953)"><path class="b" d="M188.236,122.247V120.02c1.013.047,1.372.343,1.553.572a.284.284,0,0,0,.445-.353,2.515,2.515,0,0,0-2-.786v-.411a.284.284,0,1,0-.568,0v.417c-1.258.114-1.926.89-1.937,1.648-.011.728.587,1.486,1.938,1.63v2.194a1.849,1.849,0,0,1-1.572-.6.284.284,0,1,0-.407.4,2.411,2.411,0,0,0,1.979.769v.406a.284.284,0,0,0,.568,0v-.418c1.148-.1,2-.692,2.066-1.466C190.328,123.715,190.245,122.7,188.236,122.247Zm-.568-.085c-.948-.12-1.376-.592-1.369-1.046.007-.489.482-.983,1.369-1.082Zm2.068,1.813c-.036.415-.6.848-1.5.941V122.83C189.382,123.119,189.767,123.615,189.736,123.975Z" transform="translate(-185.609 -118.759)"/></g></g></svg>