<svg xmlns="http://www.w3.org/2000/svg" width="20.382" height="25.095" viewBox="0 0 20.382 25.095"><defs><style>.a{fill:#ba1f6a;}</style></defs><g transform="translate(0.003 0.001)"><path class="a" d="M222.986,154.7a.588.588,0,0,0-.588.588V166.4a.588.588,0,0,0,1.175,0V155.291A.588.588,0,0,0,222.986,154.7Zm0,0" transform="translate(-209.331 -145.612)"/><path class="a" d="M104.986,154.7a.588.588,0,0,0-.588.588V166.4a.588.588,0,1,0,1.175,0V155.291A.588.588,0,0,0,104.986,154.7Zm0,0" transform="translate(-98.266 -145.612)"/><path class="a" d="M1.666,7.47V21.95a3.242,3.242,0,0,0,.862,2.236,2.894,2.894,0,0,0,2.1.908h11.12a2.893,2.893,0,0,0,2.1-.908,3.242,3.242,0,0,0,.862-2.236V7.47a2.245,2.245,0,0,0-.576-4.415H15.125V2.32A2.309,2.309,0,0,0,12.8,0H7.578A2.309,2.309,0,0,0,5.251,2.32v.735H2.242A2.245,2.245,0,0,0,1.666,7.47ZM15.748,23.919H4.628A1.861,1.861,0,0,1,2.841,21.95V7.521H17.534V21.95A1.861,1.861,0,0,1,15.748,23.919ZM6.426,2.32A1.132,1.132,0,0,1,7.578,1.174H12.8A1.132,1.132,0,0,1,13.949,2.32v.735H6.426ZM2.242,4.23H18.134a1.058,1.058,0,1,1,0,2.116H2.242a1.058,1.058,0,1,1,0-2.116Zm0,0" transform="translate(0 0)"/><path class="a" d="M163.986,154.7a.588.588,0,0,0-.588.588V166.4a.588.588,0,1,0,1.175,0V155.291A.588.588,0,0,0,163.986,154.7Zm0,0" transform="translate(-153.798 -145.612)"/></g></svg>