<svg xmlns="http://www.w3.org/2000/svg" xmlns:xlink="http://www.w3.org/1999/xlink" width="201.297" height="130.3" viewBox="0 0 201.297 130.3"><defs><style>.a{fill:rgba(255,255,255,0);}.b{fill:#a6a6a6;}.c,.d,.k{fill:#fff;}.c{stroke:#fff;stroke-miterlimit:28.347;stroke-width:0.772px;}.e{fill:url(#a);}.f{fill:url(#b);}.g{fill:url(#c);}.h{fill:url(#d);}.i{opacity:0.2;}.j{opacity:0.12;}.k{opacity:0.25;}</style><linearGradient id="a" x1="-16.895" y1="8.31" x2="-17.231" y2="8.483" gradientUnits="objectBoundingBox"><stop offset="0" stop-color="#00a0ff"/><stop offset="0.01" stop-color="#00a1ff"/><stop offset="0.26" stop-color="#00beff"/><stop offset="0.51" stop-color="#00d2ff"/><stop offset="0.76" stop-color="#00dfff"/><stop offset="1" stop-color="#00e3ff"/></linearGradient><linearGradient id="b" x1="-22.632" y1="23.693" x2="-23.253" y2="23.693" gradientUnits="objectBoundingBox"><stop offset="0" stop-color="#ffe000"/><stop offset="0.41" stop-color="#ffbd00"/><stop offset="0.78" stop-color="orange"/><stop offset="1" stop-color="#ff9c00"/></linearGradient><linearGradient id="c" x1="-13.083" y1="15.504" x2="-13.437" y2="15.961" gradientUnits="objectBoundingBox"><stop offset="0" stop-color="#ff3a44"/><stop offset="1" stop-color="#c31162"/></linearGradient><linearGradient id="d" x1="-13.301" y1="16.059" x2="-13.144" y2="16.263" gradientUnits="objectBoundingBox"><stop offset="0" stop-color="#32a071"/><stop offset="0.07" stop-color="#2da771"/><stop offset="0.48" stop-color="#15cf74"/><stop offset="0.8" stop-color="#06e775"/><stop offset="1" stop-color="#00f076"/></linearGradient></defs><g transform="translate(-0.218 -0.792)"><g transform="translate(0.29 71.469)"><rect class="a" width="153.791" height="59.535" transform="translate(0 0.088)"/><path d="M7.753,81.4h186.32a7.447,7.447,0,0,1,7.453,7.453V133.57a7.447,7.447,0,0,1-7.453,7.453H7.753A7.447,7.447,0,0,1,.3,133.57V88.853A7.447,7.447,0,0,1,7.753,81.4Z" transform="translate(-0.3 -81.4)"/><path class="b" d="M193.985,82.54a6.249,6.249,0,0,1,6.225,6.225v44.717a6.249,6.249,0,0,1-6.225,6.225H7.753a6.249,6.249,0,0,1-6.225-6.225h0V88.765A6.249,6.249,0,0,1,7.753,82.54H193.985m0-1.14H7.753A7.447,7.447,0,0,0,.3,88.853h0V133.57a7.447,7.447,0,0,0,7.453,7.453h186.32a7.447,7.447,0,0,0,7.453-7.453V88.853A7.579,7.579,0,0,0,193.985,81.4Z" transform="translate(-0.3 -81.4)"/><path class="c" d="M83.617,98.535a3.444,3.444,0,0,1-1.052,2.718A4.34,4.34,0,0,1,75.2,98.1a4.54,4.54,0,0,1,1.228-3.069A4.381,4.381,0,0,1,79.5,93.8a3.558,3.558,0,0,1,1.666.351,2.867,2.867,0,0,1,1.315.964l-.7.7a2.527,2.527,0,0,0-2.28-.964,3.219,3.219,0,0,0-3.244,3.156V98.1a3.37,3.37,0,0,0,3.244,3.332,3.506,3.506,0,0,0,2.28-.877,2.4,2.4,0,0,0,.7-1.666H79.5v-.964H83.53a1.492,1.492,0,0,1,.088.614Z" transform="translate(-9.528 -82.928)"/><path class="c" d="M91.322,95.164H87.64v2.63h3.42v.964H87.64v2.63h3.683v1.052H86.5V94.2h4.822Z" transform="translate(-10.92 -82.977)"/><path class="c" d="M96.732,102.33H95.68V95.052H93.4V94h5.787v1.052H96.82v7.277Z" transform="translate(-11.77 -82.952)"/><path class="c" d="M104.5,102.342V94.1h1.052v8.242Z" transform="translate(-13.138 -82.965)"/><path class="c" d="M110.632,102.33H109.58V95.052H107.3V94H113v1.052h-2.28v7.277Z" transform="translate(-13.482 -82.952)"/><path class="c" d="M124.974,101.262a4.287,4.287,0,0,1-6.05,0,4.393,4.393,0,0,1,0-6.138,4.287,4.287,0,0,1,6.05,0h0A4.57,4.57,0,0,1,124.974,101.262Zm-5.261-.7a3.175,3.175,0,0,0,4.472,0,3.5,3.5,0,0,0,0-4.735,3.175,3.175,0,0,0-4.472,0A3.5,3.5,0,0,0,119.714,100.561Z" transform="translate(-14.761 -82.937)"/><path class="c" d="M129.1,102.342V94.1h1.315l4.033,6.4h0V94.1H135.5v8.242h-1.14l-4.209-6.751h0v6.751H129.1Z" transform="translate(-16.168 -82.965)"/><path class="d" d="M112.114,116.4a5.831,5.831,0,1,0,5.875,5.787,5.838,5.838,0,0,0-5.7-5.875C112.2,116.4,112.2,116.4,112.114,116.4Zm0,9.382a3.558,3.558,0,1,1,3.332-3.77v.263a3.422,3.422,0,0,1-3.332,3.507ZM99.225,116.4a5.788,5.788,0,1,0,.175,0Zm0,9.382a3.517,3.517,0,1,1,3.244-3.77v.263a3.241,3.241,0,0,1-3.244,3.507Zm-15.256-7.54V120.7h5.962a5.458,5.458,0,0,1-1.4,3.156,6.083,6.083,0,0,1-4.559,1.841,6.576,6.576,0,1,1,0-13.152A6.371,6.371,0,0,1,88.44,114.3l1.754-1.754A8.335,8.335,0,0,0,83.969,110a9.125,9.125,0,0,0-.7,18.237h.7a8.084,8.084,0,0,0,6.313-2.543,8.8,8.8,0,0,0,2.192-5.787,4.855,4.855,0,0,0-.175-1.578l-8.33-.088ZM146.4,120.17a5.385,5.385,0,0,0-10.522,1.754v.351a5.764,5.764,0,0,0,5.612,5.875h.175a5.962,5.962,0,0,0,4.91-2.63l-2.017-1.4a3.279,3.279,0,0,1-2.893,1.666,2.894,2.894,0,0,1-2.806-1.754l7.8-3.244Zm-7.979,1.929a3.229,3.229,0,0,1,2.981-3.42h.088a2.332,2.332,0,0,1,2.192,1.228Zm-6.313,5.7h2.543V110.613H132.1ZM127.9,117.715h-.088a4.2,4.2,0,0,0-3.069-1.4,5.88,5.88,0,0,0,0,11.749,4.2,4.2,0,0,0,3.069-1.4h.088v.964c0,2.28-1.228,3.42-3.156,3.42a3.317,3.317,0,0,1-2.981-2.1l-2.28.964a5.414,5.414,0,0,0,5.173,3.42c2.981,0,5.524-1.754,5.524-6.138V116.663h-2.367Zm-2.981,8.067a3.606,3.606,0,0,1-3.244-3.858,3.562,3.562,0,0,1,3.244-3.244,3.336,3.336,0,0,1,3.156,3.507v.088a3.2,3.2,0,0,1-2.981,3.507ZM158.5,110.525h-6.138v17.185H154.9v-6.576H158.5a5.36,5.36,0,1,0,.7-10.7,1.709,1.709,0,0,1-.7.088Zm0,8.242H154.9v-5.875h3.683a2.939,2.939,0,1,1-.088,5.875Zm15.87-2.455a4.753,4.753,0,0,0-4.559,2.63l2.28.964a2.827,2.827,0,0,1,5.085.964h0v.175a5.7,5.7,0,0,0-2.718-.7c-2.455,0-5,1.4-5,3.858a3.934,3.934,0,0,0,4.121,3.77h.088A3.628,3.628,0,0,0,177,126.308h.088v1.4h2.455v-6.664c.175-2.893-2.1-4.647-5.173-4.735Zm-.263,9.469a1.772,1.772,0,0,1-2.017-1.491c0-1.4,1.491-1.841,2.718-1.841a4.55,4.55,0,0,1,2.367.614,3.121,3.121,0,0,1-3.069,2.718Zm14.643-9.031-2.981,7.453h-.088l-3.069-7.453H179.89l4.559,10.434-2.63,5.787h2.718l7.014-16.221ZM165.6,127.8h2.543V110.613H165.6Z" transform="translate(-9.441 -84.923)"/><path class="e" d="M26.611,94.975A2.567,2.567,0,0,0,26,96.9v30.513a2.988,2.988,0,0,0,.614,1.929l.088.088,17.1-17.1V111.9L26.7,94.8Z" transform="translate(-3.464 -83.051)"/><path class="f" d="M51.912,119.637l-5.612-5.7V113.5l5.612-5.7.088.088,6.751,3.858c1.929,1.052,1.929,2.893,0,3.946L52,119.549Z" transform="translate(-5.967 -84.653)"/><path class="g" d="M49.672,120.387,43.885,114.6,26.7,131.785a2.251,2.251,0,0,0,2.893.088l20.079-11.486" transform="translate(-3.552 -85.49)"/><path class="h" d="M49.66,106.23l-20.166-11.4a2.255,2.255,0,0,0-2.893.088L43.785,112.1Z" transform="translate(-3.54 -82.995)"/><path class="i" d="M49.5,121,29.506,132.4a2.236,2.236,0,0,1-2.718,0h0l-.088.088h0l.088.088h0a2.236,2.236,0,0,0,2.718,0l20.166-11.4Z" transform="translate(-3.553 -86.279)"/><path class="j" d="M26.611,133.629A2.567,2.567,0,0,1,26,131.7v.175a2.988,2.988,0,0,0,.614,1.929l.088-.088Z" transform="translate(-3.464 -87.597)"/><path class="j" d="M59.627,116.329,52.7,120.187l.088.088,6.751-3.858a2.46,2.46,0,0,0,1.4-2.017h0a2.41,2.41,0,0,1-1.315,1.929Z" transform="translate(-6.756 -85.466)"/><path class="k" d="M29.407,95.013l26.83,15.256a2.786,2.786,0,0,1,1.4,1.754h0a2.589,2.589,0,0,0-1.4-2.017L29.407,94.838c-1.929-1.052-3.507-.175-3.507,2.017v.175c.088-2.192,1.666-3.156,3.507-2.017Z" transform="translate(-3.454 -83.001)"/></g><g transform="translate(0.218 0.792)"><path class="b" d="M193.019-177.651H6.038a7.126,7.126,0,0,1-7.063-7.063v-45.2a7.126,7.126,0,0,1,7.063-7.063H193.019a7.152,7.152,0,0,1,7.192,7.063v45.2A7.238,7.238,0,0,1,193.019-177.651Z" transform="translate(1.025 236.982)"/><path d="M198.979-184.516a5.7,5.7,0,0,1-5.651,5.651H6.218a5.729,5.729,0,0,1-5.779-5.651v-45.2a5.729,5.729,0,0,1,5.779-5.651H193.2a5.618,5.618,0,0,1,5.651,5.651Z" transform="translate(0.845 236.784)"/><g transform="translate(19.082 9.246)"><path class="d" d="M46.6-205.125a8.867,8.867,0,0,1,4.109-7.192,9,9,0,0,0-6.935-3.724c-2.954-.257-5.779,1.8-7.32,1.8s-3.853-1.669-6.293-1.669a9.305,9.305,0,0,0-7.834,4.752c-3.339,5.779-.9,14.383,2.44,19.006,1.669,2.312,3.467,4.88,6.036,4.752,2.44-.128,3.339-1.541,6.293-1.541s3.724,1.541,6.293,1.541,4.238-2.312,5.779-4.623a22.574,22.574,0,0,0,2.7-5.394,8.045,8.045,0,0,1-5.265-7.705Z" transform="translate(-20.738 225.158)"/><path class="d" d="M44-220.4a8.542,8.542,0,0,0,1.926-6.036,9.186,9.186,0,0,0-5.651,2.825,8.4,8.4,0,0,0-2.055,5.779A7.183,7.183,0,0,0,44-220.4Z" transform="translate(-22.888 226.436)"/></g><g transform="translate(63.312 26.455)"><path class="d" d="M87.877-186.447H84.538l-1.8-5.779H76.319l-1.8,5.779H71.182L77.6-206.224h3.981ZM82.1-194.795l-1.669-5.137c-.128-.514-.514-1.8-1.027-3.724h0c-.257.9-.514,2.055-.9,3.724l-1.669,5.137Z" transform="translate(-71.182 206.738)"/><path class="d" d="M107.04-193.009a8.268,8.268,0,0,1-1.926,5.779,5.751,5.751,0,0,1-4.366,1.926,4.4,4.4,0,0,1-4.109-2.055h0v7.448H93.427v-15.282c0-1.541,0-3.082-.128-4.623h2.825l.128,2.312h0a5.4,5.4,0,0,1,4.88-2.568,5.487,5.487,0,0,1,4.238,1.926A7.7,7.7,0,0,1,107.04-193.009Zm-3.211.128a5.813,5.813,0,0,0-.9-3.467,3.411,3.411,0,0,0-2.825-1.413,3.487,3.487,0,0,0-2.183.771,3.781,3.781,0,0,0-1.284,2.055,2.892,2.892,0,0,0-.128.9v2.312a3.5,3.5,0,0,0,.9,2.568,2.878,2.878,0,0,0,2.44,1.027,3.411,3.411,0,0,0,2.825-1.413A4.39,4.39,0,0,0,103.829-192.881Z" transform="translate(-73.907 205.98)"/><path class="d" d="M125.788-193.009a8.268,8.268,0,0,1-1.926,5.779,5.751,5.751,0,0,1-4.366,1.926,4.4,4.4,0,0,1-4.109-2.055h0v7.448h-3.211v-15.282c0-1.541,0-3.082-.128-4.623h2.825L115-197.5h0a5.4,5.4,0,0,1,4.88-2.568,5.487,5.487,0,0,1,4.238,1.926,7.7,7.7,0,0,1,1.669,5.137Zm-3.211.128a5.813,5.813,0,0,0-.9-3.467,3.411,3.411,0,0,0-2.825-1.413,3.487,3.487,0,0,0-2.183.771,3.781,3.781,0,0,0-1.284,2.055,2.892,2.892,0,0,0-.128.9v2.312a3.5,3.5,0,0,0,.9,2.568,2.878,2.878,0,0,0,2.44,1.027,3.411,3.411,0,0,0,2.825-1.413,4.39,4.39,0,0,0,1.156-3.339Z" transform="translate(-76.217 205.98)"/><path class="d" d="M146.931-192.17a5.34,5.34,0,0,1-1.8,4.109,7.761,7.761,0,0,1-5.394,1.669,8.707,8.707,0,0,1-5.137-1.284l.771-2.7A8.384,8.384,0,0,0,140-189.088a4.614,4.614,0,0,0,2.825-.771,2.743,2.743,0,0,0,1.027-2.183,3.149,3.149,0,0,0-.771-2.055,8.268,8.268,0,0,0-2.7-1.541c-3.467-1.284-5.265-3.211-5.265-5.651a5.073,5.073,0,0,1,1.8-3.981,7.174,7.174,0,0,1,4.88-1.541,9.35,9.35,0,0,1,4.495.9l-.771,2.568a7.756,7.756,0,0,0-3.853-.9,3.613,3.613,0,0,0-2.568.771,2.332,2.332,0,0,0-.771,1.8,2.311,2.311,0,0,0,.9,1.926,9.2,9.2,0,0,0,2.825,1.541,9.376,9.376,0,0,1,3.724,2.44,6.3,6.3,0,0,1,1.156,3.6Z" transform="translate(-78.996 206.81)"/><path class="d" d="M159.464-198.084H156v6.935c0,1.8.642,2.7,1.8,2.7a4.815,4.815,0,0,0,1.413-.128l.128,2.44a6.473,6.473,0,0,1-2.44.385,3.869,3.869,0,0,1-2.954-1.156,6.016,6.016,0,0,1-1.027-3.853v-7.192H150.86v-2.312h2.055v-2.568l3.082-.9v3.6h3.467Z" transform="translate(-80.999 206.431)"/><path class="d" d="M176.7-193.027a7.711,7.711,0,0,1-1.926,5.394,6.867,6.867,0,0,1-5.265,2.183,6.4,6.4,0,0,1-5.008-2.055,7.39,7.39,0,0,1-1.926-5.265,7.711,7.711,0,0,1,1.926-5.394,6.5,6.5,0,0,1,5.137-2.055,6.4,6.4,0,0,1,5.008,2.055,6.682,6.682,0,0,1,2.055,5.137Zm-3.339.128a5.659,5.659,0,0,0-.9-3.339,3.09,3.09,0,0,0-2.825-1.669,3.282,3.282,0,0,0-2.954,1.669,6.909,6.909,0,0,0-.9,3.467,5.659,5.659,0,0,0,.9,3.339,3.09,3.09,0,0,0,2.825,1.669,3.09,3.09,0,0,0,2.825-1.669A5.522,5.522,0,0,0,173.365-192.9Z" transform="translate(-82.442 205.998)"/><path class="d" d="M189.323-197.3c-.257,0-.642-.128-1.027-.128a2.852,2.852,0,0,0-2.568,1.284,4.884,4.884,0,0,0-.77,2.825v7.448h-3.211v-9.76c0-1.669,0-3.082-.128-4.495h2.825l.128,2.7h.128a7.288,7.288,0,0,1,1.541-2.312,3.847,3.847,0,0,1,2.312-.771h.771Z" transform="translate(-84.788 206.034)"/><path class="d" d="M204.877-193.559a4.814,4.814,0,0,1-.128,1.413h-9.5a3.987,3.987,0,0,0,1.413,3.211,4.686,4.686,0,0,0,3.082,1.027,12.106,12.106,0,0,0,3.853-.642l.514,2.183a11.21,11.21,0,0,1-4.752.9,7.182,7.182,0,0,1-5.265-1.926,7.182,7.182,0,0,1-1.926-5.265,8.273,8.273,0,0,1,1.8-5.394,6.212,6.212,0,0,1,5.008-2.312,5.186,5.186,0,0,1,4.623,2.312,7.171,7.171,0,0,1,1.284,4.495Zm-3.082-.771a3.876,3.876,0,0,0-.642-2.44,2.719,2.719,0,0,0-2.568-1.284,3,3,0,0,0-2.568,1.284,4.054,4.054,0,0,0-.9,2.44Z" transform="translate(-86.087 206.016)"/></g><g transform="translate(65.238 9.632)"><path class="d" d="M81.342-220.642A4.948,4.948,0,0,1,79.8-216.66a6.535,6.535,0,0,1-4.109,1.284,12.483,12.483,0,0,1-2.312-.128v-9.5a16.033,16.033,0,0,1,2.7-.257,5.752,5.752,0,0,1,3.853,1.156A4.007,4.007,0,0,1,81.342-220.642Zm-1.669,0a3.138,3.138,0,0,0-.9-2.568,3.618,3.618,0,0,0-2.7-.9,3.959,3.959,0,0,0-1.284.128v7.192h1.027a4.231,4.231,0,0,0,2.825-1.027,3.349,3.349,0,0,0,1.027-2.825Z" transform="translate(-73.379 225.907)"/><path class="d" d="M91.464-218.886a4.031,4.031,0,0,1-.9,2.7A3.131,3.131,0,0,1,88-215.162a3.288,3.288,0,0,1-2.44-1.027,3.5,3.5,0,0,1-.9-2.568,4.031,4.031,0,0,1,.9-2.7,3.586,3.586,0,0,1,2.568-1.027,3.288,3.288,0,0,1,2.44,1.027A4.438,4.438,0,0,1,91.464-218.886Zm-1.669.128a3.555,3.555,0,0,0-.385-1.669,1.742,1.742,0,0,0-1.413-.9,1.389,1.389,0,0,0-1.413.9,3.555,3.555,0,0,0-.385,1.669,3.555,3.555,0,0,0,.385,1.669,1.742,1.742,0,0,0,1.413.9,1.5,1.5,0,0,0,1.413-.9,3.555,3.555,0,0,0,.385-1.669Z" transform="translate(-74.769 225.564)"/><path class="d" d="M104.341-222.189l-2.183,6.935h-1.413l-.9-3.082a14.934,14.934,0,0,1-.514-2.312h0c-.128.771-.385,1.541-.514,2.312l-1.027,3.082H96.379l-2.055-6.935h1.541l.771,3.339c.128.771.385,1.541.514,2.183h0a9.848,9.848,0,0,1,.642-2.183l1.027-3.339H100.1l.9,3.211a14.934,14.934,0,0,1,.514,2.312h0a14.93,14.93,0,0,1,.514-2.312l.9-3.211Z" transform="translate(-75.96 225.528)"/><path class="d" d="M114.128-215.29h-1.541v-3.981c0-1.284-.514-1.8-1.413-1.8a1.252,1.252,0,0,0-1.156.514,2.071,2.071,0,0,0-.385,1.156v4.109h-1.541v-7.063H109.5l.128,1.156h0c.128-.385.514-.642.771-.9a2.589,2.589,0,0,1,1.413-.385,2.7,2.7,0,0,1,1.669.642,3.14,3.14,0,0,1,.771,2.312v4.238Z" transform="translate(-77.656 225.564)"/><path class="d" d="M119.593-215.705h-1.541v-10.145h1.541Z" transform="translate(-78.883 225.979)"/><path class="d" d="M129.4-218.886a4.031,4.031,0,0,1-.9,2.7,3.131,3.131,0,0,1-2.568,1.027,3.288,3.288,0,0,1-2.44-1.027,3.5,3.5,0,0,1-.9-2.568,4.031,4.031,0,0,1,.9-2.7,3.586,3.586,0,0,1,2.568-1.027,3.288,3.288,0,0,1,2.44,1.027A3.7,3.7,0,0,1,129.4-218.886Zm-1.669.128a3.555,3.555,0,0,0-.385-1.669,1.742,1.742,0,0,0-1.413-.9,1.389,1.389,0,0,0-1.413.9,3.555,3.555,0,0,0-.385,1.669,3.555,3.555,0,0,0,.385,1.669,1.742,1.742,0,0,0,1.413.9,1.5,1.5,0,0,0,1.413-.9,3.555,3.555,0,0,0,.385-1.669Z" transform="translate(-79.442 225.564)"/><path class="d" d="M138.2-215.29H136.79l-.128-.771h0a2.4,2.4,0,0,1-2.055.9,2.127,2.127,0,0,1-1.541-.642,1.931,1.931,0,0,1-.514-1.413,2.113,2.113,0,0,1,1.027-1.926,5.254,5.254,0,0,1,3.082-.642v-.128a1.285,1.285,0,0,0-1.413-1.413,2.949,2.949,0,0,0-1.8.514l-.257-1.027a4.568,4.568,0,0,1,2.44-.642c1.8,0,2.7.9,2.7,2.825v2.568a3.017,3.017,0,0,0-.128,1.8Zm-1.669-2.44v-1.027c-1.669,0-2.568.385-2.568,1.413a1.086,1.086,0,0,0,.257.771,1.825,1.825,0,0,0,.771.257,1.166,1.166,0,0,0,.9-.385c.257-.257.514-.514.514-.771.128,0,.128-.128.128-.257Z" transform="translate(-80.67 225.564)"/><path class="d" d="M148.146-215.723h-1.413l-.128-1.156h0a2.22,2.22,0,0,1-2.312,1.284,2.5,2.5,0,0,1-2.055-1.027,4.136,4.136,0,0,1-.9-2.568,3.618,3.618,0,0,1,.9-2.7,2.94,2.94,0,0,1,2.183-1.027,2.027,2.027,0,0,1,1.926.9h0V-226h1.541v8.347a13.359,13.359,0,0,1,.257,1.926Zm-1.669-2.954v-1.669a2.07,2.07,0,0,0-.514-.9,1.458,1.458,0,0,0-1.027-.385,1.84,1.84,0,0,0-1.413.642,2.717,2.717,0,0,0-.514,1.8,2.368,2.368,0,0,0,.514,1.669,1.506,1.506,0,0,0,1.413.642,1.649,1.649,0,0,0,1.284-.514A3.8,3.8,0,0,0,146.477-218.677Z" transform="translate(-81.752 225.997)"/><path class="d" d="M163.378-218.886a4.031,4.031,0,0,1-.9,2.7,3.131,3.131,0,0,1-2.568,1.027,3.288,3.288,0,0,1-2.44-1.027,3.5,3.5,0,0,1-.9-2.568,4.031,4.031,0,0,1,.9-2.7,3.586,3.586,0,0,1,2.568-1.027,3.288,3.288,0,0,1,2.44,1.027A3.7,3.7,0,0,1,163.378-218.886Zm-1.669.128a3.555,3.555,0,0,0-.385-1.669,1.742,1.742,0,0,0-1.413-.9,1.389,1.389,0,0,0-1.413.9,3.555,3.555,0,0,0-.385,1.669,3.555,3.555,0,0,0,.385,1.669,1.742,1.742,0,0,0,1.413.9,1.5,1.5,0,0,0,1.413-.9A3.555,3.555,0,0,0,161.709-218.758Z" transform="translate(-83.629 225.564)"/><path class="d" d="M173.007-215.29h-1.541v-3.981c0-1.284-.514-1.8-1.413-1.8a1.252,1.252,0,0,0-1.156.514,2.071,2.071,0,0,0-.385,1.156v4.109h-1.541v-7.063h1.413l.128,1.156h0c.128-.385.514-.642.771-.9a2.589,2.589,0,0,1,1.413-.385,2.7,2.7,0,0,1,1.669.642,3.14,3.14,0,0,1,.771,2.312v4.238Z" transform="translate(-84.91 225.564)"/><path class="d" d="M185.27-221.3H183.6v3.339c0,.9.257,1.284.9,1.284a.962.962,0,0,0,.642-.128v1.156a3.188,3.188,0,0,1-1.156.128,1.6,1.6,0,0,1-1.413-.514,2.666,2.666,0,0,1-.514-1.926v-3.467h-1.027v-1.156h1.027v-1.284l1.541-.514v1.8h1.669v1.284Z" transform="translate(-86.642 225.799)"/><path class="d" d="M194.373-215.723h-1.541V-219.7c0-1.284-.514-1.926-1.413-1.926a1.669,1.669,0,0,0-1.541,1.027c0,.128-.128.385-.128.514v4.238h-1.541V-226h1.541v4.238h0a2.314,2.314,0,0,1,2.055-1.156,2.7,2.7,0,0,1,1.669.642,3.14,3.14,0,0,1,.771,2.312v4.238Z" transform="translate(-87.527 225.997)"/><path class="d" d="M204.2-219.161v.642h-4.623a2.127,2.127,0,0,0,.642,1.541,2.047,2.047,0,0,0,1.541.514,5.153,5.153,0,0,0,1.926-.385l.257,1.027a6.221,6.221,0,0,1-2.312.385,3.5,3.5,0,0,1-2.568-.9,3.5,3.5,0,0,1-.9-2.568,3.5,3.5,0,0,1,.9-2.568,2.983,2.983,0,0,1,2.44-1.156,2.593,2.593,0,0,1,2.312,1.156,12.4,12.4,0,0,1,.385,2.312Zm-1.541-.385a2.564,2.564,0,0,0-.257-1.156,1.417,1.417,0,0,0-1.284-.642,1.783,1.783,0,0,0-1.284.642,4.562,4.562,0,0,0-.514,1.156Z" transform="translate(-88.754 225.582)"/></g></g></g></svg>