<svg xmlns="http://www.w3.org/2000/svg" width="25.323" height="25.196" viewBox="0 0 25.323 25.196"><defs><style>.a{fill:#ba1f6a;}</style></defs><g transform="translate(0 -0.261)"><path class="a" d="M23.372,52.529a.631.631,0,0,0-.631.631v5.6a1.894,1.894,0,0,1-1.892,1.892H3.153A1.894,1.894,0,0,1,1.261,58.76c0-16.731,0-18.327,0-18.327H8.753a.631.631,0,0,0,0-1.261H0S0,41.443,0,58.76a3.157,3.157,0,0,0,3.153,3.153h17.7A3.157,3.157,0,0,0,24,58.76v-5.6A.631.631,0,0,0,23.372,52.529Zm0,0" transform="translate(0 -36.457)"/><path class="a" d="M125.119,1.092a2.838,2.838,0,0,0-4.014,0L109.854,12.344a.631.631,0,0,0-.162.278l-1.48,5.342a.631.631,0,0,0,.776.776l5.342-1.48a.631.631,0,0,0,.278-.162L125.859,5.846a2.841,2.841,0,0,0,0-4.014ZM111.228,12.753l9.209-9.209,2.97,2.97L114.2,15.723Zm-.593,1.19,2.373,2.373-3.282.909Zm14.332-8.99-.669.669-2.97-2.97L122,1.984a1.577,1.577,0,0,1,2.23,0l.74.74A1.579,1.579,0,0,1,124.968,4.954Zm0,0" transform="translate(-101.367)"/></g></svg>