<svg xmlns="http://www.w3.org/2000/svg" width="38.816" height="46.86" viewBox="0 0 38.816 46.86"><defs><style>.a{fill:#323232;}.b{fill:#ba1f6a;}</style></defs><path class="a" d="M44.828,378.044a.989.989,0,0,1-.375-.075,1.045,1.045,0,0,1-.17-.09.961.961,0,0,1-.271-.271,1.044,1.044,0,0,1-.09-.169.985.985,0,0,1-.056-.183.974.974,0,0,1-.02-.191.985.985,0,0,1,.287-.693.967.967,0,0,1,.149-.122,1.019,1.019,0,0,1,.17-.09.977.977,0,0,1,.75,0,1.035,1.035,0,0,1,.17.09.968.968,0,0,1,.149.122.985.985,0,0,1,.287.693.973.973,0,0,1-.02.191.985.985,0,0,1-.056.183.99.99,0,0,1-.212.318A.989.989,0,0,1,44.828,378.044Zm0,0" transform="translate(-39.602 -342.537)"/><path class="a" d="M36.286,61.186a2.646,2.646,0,0,0,.326-1.2A2.7,2.7,0,0,0,34.2,57.231c-.031,0-.062,0-.093,0H31.764a2.6,2.6,0,0,0-.239-1.345c-.436-.927-3.248-1.829-6.086-1.2s-4.759,1.39-5.266,3.718l-.568,1.9H15.978a.98.98,0,0,0-.955-.76H9.971a.98.98,0,0,0,0,1.959h4.073v7.1H2.459V60.524a.98.98,0,1,0-1.959,0v9.058a.979.979,0,0,0,.98.98H15.023a.98.98,0,0,0,.98-.98V62.263h4.332a.98.98,0,0,0,.939-.7l.787-2.64c.007-.024.013-.048.019-.073.312-1.439,3.806-3.038,6.705-2.748s1.079,1.124,1.079,1.124-4.934.474-4.9,1.045a1,1,0,0,0,1.011.914h8.069a.735.735,0,0,1,.6.746.761.761,0,0,1-.7.712h-1.2a.98.98,0,1,0,0,1.959h2a.74.74,0,0,1,0,1.469h-2a.98.98,0,1,0,0,1.959h2.017a.727.727,0,0,1-.01,1.445l-2,.007a.98.98,0,1,0,0,1.959h1.028l.033,0a.725.725,0,0,1,.655.745.75.75,0,0,1-.7.7l-8.321,0a4.56,4.56,0,0,1-4.026-2.036.984.984,0,0,0-1.658,1.062,6.342,6.342,0,0,0,5.684,2.934c8.377,0,8.377,0,8.405,0a2.719,2.719,0,0,0,2.58-2.608,2.691,2.691,0,0,0-.269-1.252,2.718,2.718,0,0,0,.415-.339,2.681,2.681,0,0,0,.173-3.6,2.7,2.7,0,0,0-.457-3.864Z" transform="translate(-0.5 -25.997)"/><g transform="translate(16.194)"><path class="b" d="M133.787,11.311a3.685,3.685,0,0,0-2.73-3.554,3.679,3.679,0,0,0-5.027-5.027,3.679,3.679,0,0,0-7.108,0A3.679,3.679,0,0,0,113.9,7.757a3.679,3.679,0,0,0,0,7.109,3.68,3.68,0,0,0,5.027,5.027c.367,1.373,2.928,2.675,2.928,2.675l-.006,8.985,1.258-.176V22.568s2.561-1.3,2.928-2.675a3.679,3.679,0,0,0,5.027-5.027A3.685,3.685,0,0,0,133.787,11.311ZM115.363,4.2a2.427,2.427,0,0,1,3.432,0c.014.014.033.034.056.061a34.123,34.123,0,0,0,1.173,4.311,3.722,3.722,0,0,0-.289.289,34.122,34.122,0,0,0-4.312-1.173c-.028-.024-.047-.043-.061-.056A2.43,2.43,0,0,1,115.363,4.2Zm-2.946,7.113a2.43,2.43,0,0,1,2.427-2.427,19.812,19.812,0,0,1,4.212,1.074,3.665,3.665,0,0,0,0,2.706,19.818,19.818,0,0,1-4.212,1.074A2.43,2.43,0,0,1,112.416,11.311ZM122.475,21.37a2.43,2.43,0,0,1-2.427-2.427,6.179,6.179,0,0,1,.225-1.262.626.626,0,1,0-1.216-.3c-.095.389-.162.71-.205.976-.025.028-.044.049-.058.063a2.427,2.427,0,0,1-3.432-3.432c.013-.013.034-.032.061-.057a34.124,34.124,0,0,0,4.311-1.173,3.715,3.715,0,0,0,.289.289c-.09.282-.175.555-.254.813a.626.626,0,1,0,1.2.368c.05-.162.1-.33.156-.5a3.665,3.665,0,0,0,2.706,0,19.813,19.813,0,0,1,1.074,4.212A2.43,2.43,0,0,1,122.475,21.37Zm0-7.632a2.427,2.427,0,1,1,2.427-2.427A2.43,2.43,0,0,1,122.475,13.738Zm2.448-7.294a.626.626,0,0,0-.779.42c-.1.321-.2.665-.316,1.027a3.665,3.665,0,0,0-2.706,0,19.814,19.814,0,0,1-1.074-4.212,2.427,2.427,0,1,1,4.854,0,1.826,1.826,0,0,1-.016.211c-.019.161-.056.367-.109.612A.626.626,0,1,0,126,4.765c.04-.185.071-.352.1-.5.025-.029.045-.05.059-.064a2.427,2.427,0,0,1,3.432,3.432c-.014.014-.034.033-.061.057a34.128,34.128,0,0,0-4.311,1.173,3.706,3.706,0,0,0-.289-.289c.152-.48.292-.932.417-1.347A.626.626,0,0,0,124.923,6.444Zm4.665,11.98a2.427,2.427,0,0,1-3.432,0c-.013-.013-.032-.034-.056-.061a34.135,34.135,0,0,0-1.173-4.311,3.714,3.714,0,0,0,.289-.289,34.125,34.125,0,0,0,4.311,1.173c.028.024.048.043.061.056A2.429,2.429,0,0,1,129.588,18.424Zm.519-4.686a19.821,19.821,0,0,1-4.212-1.074,3.665,3.665,0,0,0,0-2.706,19.818,19.818,0,0,1,4.212-1.074,2.427,2.427,0,0,1,0,4.854Z" transform="translate(-111.164)"/></g></svg>