<svg xmlns="http://www.w3.org/2000/svg" width="58.163" height="41.891" viewBox="0 0 58.163 41.891"><defs><style>.a{fill:#888;}</style></defs><g transform="translate(0 -71.622)"><g transform="translate(53.637 111.133)"><path class="a" d="M475.494,419.428h-2.146a1.19,1.19,0,0,0,0,2.38h2.146a1.19,1.19,0,0,0,0-2.38Z" transform="translate(-472.158 -419.428)"/></g><g transform="translate(0 71.622)"><path class="a" d="M50.624,111.133h-1.8V89a6,6,0,0,0,3.136-7.789l-2.54-6.145a5.558,5.558,0,0,0-5.153-3.445H8.149A5.558,5.558,0,0,0,3,75.067L.456,81.213A6,6,0,0,0,3.593,89v22.131H1.449a1.19,1.19,0,0,0,0,2.38H50.624a1.19,1.19,0,1,0,0-2.38ZM44.269,74a3.186,3.186,0,0,1,2.953,1.975l2.54,6.145a3.622,3.622,0,0,1-3.348,5.006,3.616,3.616,0,0,1-3.516-2.75l-.574-2.316h0l-2-8.059ZM22.345,83.208,23.106,74h6.206l.1,1.173.664,8.032a3.622,3.622,0,0,1-3.61,3.921h-.508a3.622,3.622,0,0,1-3.61-3.92ZM12.4,82.634,14.545,74h6.173l-.6,7.317-.14,1.692h0l-.066.792a3.643,3.643,0,0,1-3.61,3.324h-.379A3.622,3.622,0,0,1,12.4,82.634ZM2.992,85.519a3.569,3.569,0,0,1-.336-3.4L5.2,75.977A3.185,3.185,0,0,1,8.149,74h3.943l-2,8.059h0l-.574,2.316A3.616,3.616,0,0,1,6,87.128,3.569,3.569,0,0,1,2.992,85.519Zm28.918,25.613H5.973V89.507H6a5.99,5.99,0,0,0,4.959-2.619c.073.107.149.212.23.315a5.965,5.965,0,0,0,4.727,2.3H16.3a6.005,6.005,0,0,0,4.829-2.438,5.986,5.986,0,0,0,4.828,2.437h.508a6.018,6.018,0,0,0,4.416-1.937,5.956,5.956,0,0,0,.412-.5,6,6,0,0,0,.62.712v23.35Zm.6-27.328L31.7,74h6.174l2.141,8.632A3.622,3.622,0,0,1,36.5,87.128H36.12A3.643,3.643,0,0,1,32.51,83.8Zm13.936,27.328H34.291V89.222a6,6,0,0,0,1.83.286H36.5a5.966,5.966,0,0,0,4.728-2.3c.08-.1.156-.208.229-.315a5.99,5.99,0,0,0,4.959,2.619h.031Z" transform="translate(0 -71.622)"/></g><g transform="translate(42.311 97.183)"><path class="a" d="M373.644,296.629a1.19,1.19,0,0,0-1.19,1.19v2a1.19,1.19,0,0,0,2.38,0v-2A1.19,1.19,0,0,0,373.644,296.629Z" transform="translate(-372.454 -296.629)"/></g><g transform="translate(10.803 92.091)"><path class="a" d="M108.8,259.948a4.539,4.539,0,0,0,2.574-3.877,3.844,3.844,0,0,0-.5-1.886,4.608,4.608,0,0,0-.821-1.069,5.653,5.653,0,0,0-1.013-.784l-.04-.023a3.859,3.859,0,0,0-1.89-.5,4.539,4.539,0,0,0-3.877,2.574,4.54,4.54,0,0,0-3.878-2.574,3.861,3.861,0,0,0-1.89.5l-.04.023a5.7,5.7,0,0,0-1.009.781,4.612,4.612,0,0,0-.823,1.069,3.848,3.848,0,0,0-.5,1.889,4.536,4.536,0,0,0,2.573,3.878,4.54,4.54,0,0,0-2.574,3.878,3.851,3.851,0,0,0,.5,1.89l.022.037a5.66,5.66,0,0,0,.782,1.012,4.636,4.636,0,0,0,1.072.825,3.871,3.871,0,0,0,1.886.5,4.54,4.54,0,0,0,3.878-2.574,4.539,4.539,0,0,0,3.877,2.574,3.859,3.859,0,0,0,1.886-.5,4.612,4.612,0,0,0,1.071-.823,5.673,5.673,0,0,0,.784-1.014l.022-.037a3.85,3.85,0,0,0,.5-1.89A4.539,4.539,0,0,0,108.8,259.948Zm-1.687-6a1.735,1.735,0,0,1,.832.219,3.5,3.5,0,0,1,.612.475,2.486,2.486,0,0,1,.446.576,1.734,1.734,0,0,1,.229.849c0,1.213-1.333,2.265-3.106,2.557a3.2,3.2,0,0,0-1.57-1.571C104.849,255.285,105.9,253.952,107.115,253.952ZM99.36,265.943a1.751,1.751,0,0,1-.851-.229,2.508,2.508,0,0,1-.575-.447,3.515,3.515,0,0,1-.474-.612,1.728,1.728,0,0,1-.219-.831c0-1.214,1.333-2.266,3.105-2.558a3.2,3.2,0,0,0,1.572,1.572C101.627,264.611,100.574,265.943,99.36,265.943Zm.987-7.315c-1.772-.292-3.105-1.344-3.1-2.557a1.738,1.738,0,0,1,.23-.852,2.488,2.488,0,0,1,.446-.574,3.539,3.539,0,0,1,.61-.474,1.736,1.736,0,0,1,.832-.219c1.214,0,2.266,1.333,2.558,3.105A3.2,3.2,0,0,0,100.347,258.628Zm2.891,2.356a1.037,1.037,0,1,1,1.037-1.037A1.038,1.038,0,0,1,103.238,260.985Zm5.777,3.672a3.506,3.506,0,0,1-.475.613,2.484,2.484,0,0,1-.574.445,1.746,1.746,0,0,1-.851.229c-1.213,0-2.265-1.333-2.557-3.105a3.2,3.2,0,0,0,1.571-1.571c1.772.292,3.105,1.345,3.105,2.558A1.728,1.728,0,0,1,109.014,264.656Z" transform="translate(-95.099 -251.81)"/></g></g></svg>