<svg xmlns="http://www.w3.org/2000/svg" width="18.846" height="27.031" viewBox="0 0 18.846 27.031"><defs><style>.a{fill:#34a853;}.b{fill:#fbbc04;}.c{fill:#4285f4;}.d{fill:#1a73e8;}.e{fill:#ea4335;}</style></defs><g transform="translate(-583.3 52.9)"><path class="a" d="M620.6-1.537a26.233,26.233,0,0,1,2.13,3.146A16.446,16.446,0,0,1,623.9,4.574c.237.682.459.891.933.891.515,0,.752-.348.933-.891a16.727,16.727,0,0,1,1.127-2.909,32.559,32.559,0,0,1,3.16-4.468,27.654,27.654,0,0,0,3.132-4.51,10.981,10.981,0,0,0,1.072-4.774A9.491,9.491,0,0,0,633.2-16.5l-3.062.821-1.865,4.9-.459.668-.1.125-.125.153-.209.251-.306.306-1.656,1.35-4.134,2.394Z" transform="translate(-32.108 -31.333)"/><path class="b" d="M589.9,5.006c1.016,2.311,2.951,4.329,4.273,6.11l7-8.3a3.675,3.675,0,0,1-2.77,1.294A3.585,3.585,0,0,1,594.8.524a3.841,3.841,0,0,1,.821-2.324L590.874-.533Z" transform="translate(-5.681 -43.987)"/><path class="c" d="M636.637-49.8a9.343,9.343,0,0,1,5.512,4.649l-5.6,6.667a3.891,3.891,0,0,0,.821-2.324,3.626,3.626,0,0,0-3.591-3.591A3.769,3.769,0,0,0,631-43.119v-4.2Z" transform="translate(-41.061 -2.669)"/><path class="d" d="M599.1-49.532a9.353,9.353,0,0,1,7.2-3.368,9.621,9.621,0,0,1,2.867.431l-5.623,6.681h-3.981Z" transform="translate(-13.601 0)"/><path class="e" d="M584.219-18.063a10.775,10.775,0,0,1-.919-4.454,9.372,9.372,0,0,1,2.213-6.083l4.44,3.744Z" transform="translate(0 -20.918)"/></g></svg>