<svg xmlns="http://www.w3.org/2000/svg" width="25.037" height="25.038" viewBox="0 0 25.037 25.038"><defs><style>.a{fill:#ba1f6a;}.b{fill:#a7a6a3;}</style></defs><g transform="translate(3.108 16.572)"><path class="a" d="M68.308,339.5a6.7,6.7,0,0,1-.542-.613l-4.2,4.2q.269.306.558.6t.6.558l4.2-4.2A6.728,6.728,0,0,1,68.308,339.5Z" transform="translate(-63.563 -338.89)"/></g><g transform="translate(3.108 3.108)"><path class="a" d="M64.718,63.564q-.305.269-.6.558t-.558.6l4.2,4.2a6.731,6.731,0,0,1,1.155-1.155Z" transform="translate(-63.563 -63.564)"/></g><g transform="translate(16.572 16.572)"><path class="a" d="M340.046,338.892a6.727,6.727,0,0,1-1.155,1.155l4.2,4.2q.305-.269.6-.558t.558-.6Z" transform="translate(-338.891 -338.892)"/></g><g transform="translate(18.543 5.483)"><path class="b" d="M383.52,112.129l-4.334,4.334a6.636,6.636,0,0,1,0,5.4l4.334,4.334a12.535,12.535,0,0,0,0-14.071Z" transform="translate(-379.186 -112.129)"/></g><g transform="translate(16.572 3.108)"><path class="a" d="M343.689,64.123q-.29-.29-.6-.558l-4.2,4.2a6.73,6.73,0,0,1,1.155,1.155l4.2-4.2Q343.978,64.414,343.689,64.123Z" transform="translate(-338.89 -63.565)"/></g><g transform="translate(5.483 18.543)"><path class="b" d="M121.868,379.186a6.636,6.636,0,0,1-5.4,0l-4.334,4.334a12.535,12.535,0,0,0,14.071,0Z" transform="translate(-112.131 -379.186)"/></g><g transform="translate(0 5.483)"><path class="b" d="M6.495,116.465l-4.334-4.334a12.534,12.534,0,0,0,0,14.071l4.334-4.334a6.636,6.636,0,0,1,0-5.4Z" transform="translate(0 -112.131)"/></g><g transform="translate(5.483)"><path class="b" d="M119.166,0a12.428,12.428,0,0,0-7.036,2.161l4.334,4.334a6.636,6.636,0,0,1,5.4,0L126.2,2.161A12.428,12.428,0,0,0,119.166,0Z" transform="translate(-112.13)"/></g></svg>