<svg xmlns="http://www.w3.org/2000/svg" width="60.014" height="30.007" viewBox="0 0 60.014 30.007"><defs><style>.a{fill:#888;}</style></defs><path class="a" d="M61.013,32.007H19a1,1,0,0,1-1-1V22.482l-2.887,1.155a3,3,0,0,1-2.229,0L10,22.482v2.524a1,1,0,0,1-1,1H3a1,1,0,0,1-1-1V3A1,1,0,0,1,3,2H9a1,1,0,0,1,1,1V4h21a1,1,0,0,1,.707.293L35.422,8H61.013a1,1,0,0,1,1,1V31.007A1,1,0,0,1,61.013,32.007ZM8,4H4v20H8ZM30.593,6H10V20.327l3.629,1.451a.994.994,0,0,0,.743,0l4.258-1.7A1.012,1.012,0,0,1,19,20h9a2,2,0,1,0,0-4H15V14h3V9a1,1,0,0,1,1-1H32.593Zm29.421,4H20v4h8a4,4,0,1,1,0,8H20v8H60.013Z" transform="translate(-2 -2)"/><path class="a" d="M24,12a8,8,0,1,1-8,8,8,8,0,0,1,8-8Zm0,14a6,6,0,1,0-6-6,6,6,0,0,0,6,6Z" transform="translate(14.007 -1.998)"/><path class="a" d="M11,13v4H9V14H6V12h4A1,1,0,0,1,11,13Z" transform="translate(45.012 -1.998)"/><path class="a" d="M9,23h2v4a1,1,0,0,1-1,1H6V26H9Z" transform="translate(45.012 -1.995)"/><path class="a" d="M39,26h3v2H38a1,1,0,0,1-1-1V23h2Z" transform="translate(-16.995 -1.995)"/></svg>