<svg xmlns="http://www.w3.org/2000/svg" width="16.599" height="22.103" viewBox="0 0 16.599 22.103"><defs><style>.a{fill:#323232;}</style></defs><g transform="translate(0 -0.07)"><path class="a" d="M468.267,514.049a1.059,1.059,0,1,0-1.059,1.058,1.059,1.059,0,0,0,1.059-1.058Zm-1.059.411a.411.411,0,0,1-.41-.411h0a.411.411,0,1,1,.411.411Z" transform="translate(-458.91 -511.77)"/><path class="a" d="M155.445,478.712h-.408a2.954,2.954,0,0,0-.582-.958,2.082,2.082,0,0,1-.548-1.4v-5.1h0v-.61a5.917,5.917,0,0,0-.848-3.077l-.013-.022-.046-.075-.049-.076,0-.005a6.037,6.037,0,0,0-.8-.985,5.931,5.931,0,0,0-2.626-1.533,2.211,2.211,0,0,0-1.549-3.747h-.081a2.211,2.211,0,0,0-1.55,3.748q-.212.058-.419.132v.013a5.927,5.927,0,0,0-1.669.915.324.324,0,0,0,.4.51q.1-.08.206-.153h0a5.321,5.321,0,0,1,2.156-.9h0l.1-.016h.009l.092-.013.016,0,.086-.011.022,0,.08-.008.028,0,.074-.006.033,0,.069,0,.039,0,.064,0,.044,0h.322l.044,0,.064,0,.039,0,.069,0,.033,0,.075.006.028,0,.08.008.022,0,.086.011.016,0,.092.013h.009l.1.016h0a5.32,5.32,0,0,1,2.156.9h0c.07.049.139.1.206.153a.338.338,0,0,0,.049.029,5.4,5.4,0,0,1,.849.858.325.325,0,0,0,.036.057,5.212,5.212,0,0,1,1.1,3.237h.009v.631H142.6v-.61a5.277,5.277,0,0,1,1.113-3.259.324.324,0,1,0-.505-.405l-.007.01a5.919,5.919,0,0,0-1.245,3.655v.61h0v5.093h0v.006a2.081,2.081,0,0,1-.548,1.4,2.955,2.955,0,0,0-.582.958h-.412a.785.785,0,0,0-.784.786v1.013a.785.785,0,0,0,.784.785h1.659a.324.324,0,1,0,0-.648h-1.659a.137.137,0,0,1-.137-.137V479.5a.137.137,0,0,1,.137-.137h15.026a.137.137,0,0,1,.137.137h0v1.012a.138.138,0,0,1-.137.137H143.483a.324.324,0,0,0,0,.648h1.612a3.047,3.047,0,0,0,.426.747.324.324,0,0,0,.51-.4,2.42,2.42,0,0,1-.226-.35h4.248a2.4,2.4,0,0,1-3.021,1.107.324.324,0,0,0-.242.6,3.05,3.05,0,0,0,3.969-1.691l.007-.017h4.678a.785.785,0,0,0,.786-.784h0V479.5a.785.785,0,0,0-.785-.785Zm-8.889-14.652a1.563,1.563,0,0,1,1.311-2.295h.127a1.563,1.563,0,0,1,.678,2.934,6.068,6.068,0,0,0-1.483,0A1.561,1.561,0,0,1,146.556,464.06Zm-3.953,8.794V471.9h10.652v2.16H142.6Zm-1.077,5.859a2.3,2.3,0,0,1,.358-.522,2.727,2.727,0,0,0,.717-1.84V474.7h10.656v1.642h0v.006a2.727,2.727,0,0,0,.72,1.84h-.006a2.309,2.309,0,0,1,.357.522Z" transform="translate(-139.63 -461.05)"/></g></svg>