<svg xmlns="http://www.w3.org/2000/svg" width="41.78" height="21.25" viewBox="0 0 41.78 21.25"><defs><style>.a{fill:#323232;}</style></defs><path class="a" d="M57.442,273.363h-.75v0h-1.32v0h-3.95v0h-1.4l0,0H47.345l0,0h-1.4v0H42.119v0H39.981l0,0H37.31l0,0H35.3v0h-3.95v0h-1.4l0,0H27.275l0,0h-1.4v0H22.046v0h-1.32v0h-.75a2.156,2.156,0,1,0,0,4.312h.5l4.252,13.843a4.356,4.356,0,0,0,4.185,3.092H48.5a4.355,4.355,0,0,0,4.185-3.092l4.252-13.843h.5a2.156,2.156,0,1,0,0-4.312Zm-6.017,17.766a3.041,3.041,0,0,1-2.921,2.159H28.915a3.041,3.041,0,0,1-2.922-2.159L21.86,277.675h33.7Zm6.017-14.776H19.976a.835.835,0,1,1,0-1.67H57.442a.835.835,0,1,1,0,1.67Z" transform="translate(-17.82 -273.36)"/></svg>