<svg xmlns="http://www.w3.org/2000/svg" width="50.62" height="35.406" viewBox="0 0 50.62 35.406"><defs><style>.a{fill:#888;}</style></defs><g transform="translate(0 -76.943)"><g transform="translate(0 76.943)"><path class="a" d="M49.821,84.55a.8.8,0,0,0,.8-.8V80.64a3.7,3.7,0,0,0-3.7-3.7H3.7A3.7,3.7,0,0,0,0,80.64v28.012a3.7,3.7,0,0,0,3.7,3.7H46.924a3.7,3.7,0,0,0,3.7-3.7V86.343a.8.8,0,0,0-1.6,0v22.308a2.1,2.1,0,0,1-2.1,2.1H3.7a2.1,2.1,0,0,1-2.1-2.1V80.64a2.1,2.1,0,0,1,2.1-2.1H46.923a2.1,2.1,0,0,1,2.1,2.1v3.11A.8.8,0,0,0,49.821,84.55Z" transform="translate(0 -76.943)"/></g><g transform="translate(14.166 81.809)"><g transform="translate(0 0)"><path class="a" d="M165.224,134.89l0-.012a4.816,4.816,0,0,0-1.434-2.049,5.878,5.878,0,0,0-1.451-4.557c-1.227-1.4-3.392-2.115-6.433-2.115h-7.673a2.107,2.107,0,0,0-1.832,1.466.8.8,0,0,0-.032.133l-3.069,20.1a.808.808,0,0,0-.009.121,1.5,1.5,0,0,0,1.413,1.567h3.815l-.2,1.22a.8.8,0,0,0-.011.13,1.352,1.352,0,0,0,1.413,1.412h3.825a1.866,1.866,0,0,0,1.865-1.541c0-.017.007-.034.01-.052l.767-4.757c0-.019.005-.037.007-.056a.336.336,0,0,1,.348-.346h.392a9.216,9.216,0,0,0,5.452-1.491,7.786,7.786,0,0,0,3.009-5.315A7.931,7.931,0,0,0,165.224,134.89Zm-16.447,13.059H144.9l3.033-19.868a.658.658,0,0,1,.305-.325H155.9c2.524,0,4.332.542,5.23,1.568a3.989,3.989,0,0,1,1.054,2.6,7.743,7.743,0,0,0-2.2-.392c-.026,0-.051,0-.077,0h-2.238l-.053,0h-4.667a1.889,1.889,0,0,0-1.83,1.59c0,.013-.005.026-.007.04l-1.222,7.944Zm13.378-14.3c-.011.048-.022.095-.034.142s-.018.076-.027.114-.018.077-.027.115c-.013.053-.028.1-.042.155-.008.031-.017.062-.026.093s-.022.082-.033.122-.033.1-.049.157l-.02.063c-.015.046-.028.093-.043.138s-.037.106-.056.159l-.013.037c-.018.05-.034.1-.053.149s-.042.107-.063.16l-.008.019c-.02.051-.04.1-.061.154s-.047.107-.071.161-.047.108-.071.161-.051.1-.076.155-.05.1-.076.154-.055.1-.083.151-.052.1-.08.145-.059.1-.089.147-.055.093-.084.138-.064.1-.1.142-.058.087-.087.129-.069.093-.1.139-.06.081-.09.121-.073.089-.11.133-.062.077-.094.114-.078.086-.117.128-.065.072-.1.107-.083.082-.124.123-.067.067-.1.1-.087.078-.131.117-.069.063-.1.093-.092.074-.138.111-.071.059-.108.087-.1.071-.146.106-.073.054-.111.08-.1.067-.154.1-.075.05-.114.074-.108.063-.163.095c-.039.022-.076.045-.115.067-.056.031-.115.06-.172.089-.039.02-.077.041-.117.06-.058.028-.118.055-.178.082-.041.019-.081.038-.122.056-.06.026-.122.05-.184.074-.042.017-.084.035-.127.051-.062.024-.126.045-.19.067l-.132.046c-.063.021-.129.04-.194.059-.046.014-.092.029-.138.042-.065.018-.132.035-.2.052-.048.012-.1.026-.144.037-.069.017-.14.031-.21.046l-.144.031c-.071.014-.145.026-.218.039l-.147.026c-.074.012-.149.022-.224.032l-.152.022c-.076.009-.155.017-.233.025l-.154.017c-.078.007-.157.012-.236.018l-.162.012c-.086.005-.175.008-.263.011l-.146.006q-.207.006-.419.006h-2.35l.984-6.392c.062-.277.2-.293.3-.3h4.679l.053,0h2.129l.035,0a6.04,6.04,0,0,1,2.031.4c.062.027.138.064.224.11Zm1.659,4.838c-.613,3.681-2.865,5.47-6.885,5.47h-.392a1.937,1.937,0,0,0-1.937,1.77l-.758,4.7c-.07.279-.193.279-.3.279h-3.6l.294-1.791c0-.014.006-.028.008-.042l1.139-6.954.005-.01.007-.015.007-.013.012-.024c.01-.023.019-.046.027-.071a.667.667,0,0,1,.325-.374h2.294q.243,0,.479-.007l.157-.007c.1,0,.209-.008.312-.014l.182-.013c.092-.007.184-.013.275-.022l.19-.02c.085-.009.171-.018.255-.029l.192-.026.241-.036.191-.033.231-.043.188-.039.223-.051.184-.046.217-.059.178-.051c.071-.021.141-.044.211-.067l.172-.057c.07-.024.138-.05.207-.076l.164-.062c.07-.028.138-.057.206-.086.051-.022.1-.043.153-.065.072-.033.143-.067.214-.1.044-.021.089-.042.133-.064.1-.049.193-.1.288-.153l.109-.062c.087-.05.174-.1.258-.154.042-.027.083-.055.125-.082.063-.041.125-.081.186-.124.045-.031.089-.064.133-.1s.112-.081.167-.123.089-.071.133-.106.1-.084.155-.127.087-.076.13-.114.1-.088.147-.133.084-.081.126-.122.093-.092.139-.139.081-.085.121-.128.089-.1.132-.147.078-.089.115-.134.085-.1.126-.155.074-.092.11-.139.081-.109.121-.164.069-.095.1-.143.078-.116.117-.175.064-.1.095-.146.077-.127.115-.191c.028-.048.057-.1.085-.144.041-.072.08-.145.119-.219.023-.043.047-.085.069-.129q.088-.17.169-.347l.033-.073c.047-.1.093-.208.137-.315.019-.047.037-.1.056-.143.033-.082.065-.163.1-.247.02-.054.039-.11.058-.165.028-.079.056-.158.082-.239.019-.058.037-.118.056-.177s.037-.114.054-.172a3.259,3.259,0,0,1,.234.505A6.5,6.5,0,0,1,163.814,138.488Z" transform="translate(-143.286 -126.157)"/></g></g></g></svg>