<svg xmlns="http://www.w3.org/2000/svg" width="26.337" height="25.136" viewBox="0 0 26.337 25.136"><defs><style>.a{fill:#ba1f6a;}.b{fill:#a7a6a3;}</style></defs><g transform="translate(0 -11.678)"><g transform="translate(21.059 23.711)"><path class="a" d="M411.289,245.61h-.939a.945.945,0,0,0-.944.944v.939a.945.945,0,0,0,.944.944h.939a.945.945,0,0,0,.944-.944v-.939A.945.945,0,0,0,411.289,245.61Zm.173,1.883a.173.173,0,0,1-.173.173h-.939a.173.173,0,0,1-.173-.173v-.939a.173.173,0,0,1,.173-.173h.939a.173.173,0,0,1,.173.173Z" transform="translate(-409.406 -245.61)"/></g><g transform="translate(0 11.678)"><path class="b" d="M25.924,21.824a1.411,1.411,0,0,0-1-.42l-.8,0,.018-4.841a1.349,1.349,0,0,0-1.348-1.354H21.419V12.65a.973.973,0,0,0-.972-.972H5.842a.973.973,0,0,0-.972.972V15.2h-1.3a1.351,1.351,0,0,0-1.349,1.344l-.017,4.782-.747,0H1.456a1.422,1.422,0,0,0-1.42,1.415L0,32.709a1.422,1.422,0,0,0,1.415,1.425l3.3.012L4.08,35.912a.628.628,0,0,0,.589.84l17,.062h0a.628.628,0,0,0,.593-.835l-.62-1.771,3.236.012h.005A1.422,1.422,0,0,0,26.3,32.8l.036-9.975A1.411,1.411,0,0,0,25.924,21.824Zm-4.505-5.847h1.368a.578.578,0,0,1,.577.58L23.347,21.4l-1.928-.007ZM5.641,12.65a.2.2,0,0,1,.2-.2H20.448a.2.2,0,0,1,.2.2v8.739L5.641,21.335V12.65ZM3,16.544a.579.579,0,0,1,.578-.576h1.3v5.363l-1.891-.007Zm.836,16.828L3.839,31.6a.214.214,0,0,1,.214-.213h0L5.7,31.4l-.333.929L5,33.34l-.013.035Zm1.042,2.61.749-2.088h0L6.518,31.4l13.337.048.876,2.5h0l.734,2.094ZM22.5,33.439l-1.128,0L21.218,33l-.544-1.553,1.616.006a.214.214,0,0,1,.213.215Zm3.033-.638a.65.65,0,0,1-.649.646h0l-1.611-.006.006-1.768a.985.985,0,0,0-.982-.989l-2.143-.008-.02,0-13.882-.05h-.02l-2.171-.008h0a.986.986,0,0,0-.985.982l-.006,1.768-1.644-.006a.65.65,0,0,1-.646-.651l.036-9.975a.65.65,0,0,1,.649-.646h0l1.132,0,22.328.081a.65.65,0,0,1,.646.651Z" transform="translate(0 -11.678)"/></g><g transform="translate(7.358 17.883)"><path class="a" d="M151.165,132.313h-7.738a.386.386,0,0,0,0,.771h7.738a.386.386,0,0,0,0-.771Z" transform="translate(-143.041 -132.313)"/></g><g transform="translate(17.228 17.883)"><path class="a" d="M336.447,132.313h-1.131a.386.386,0,1,0,0,.771h1.131a.386.386,0,0,0,0-.771Z" transform="translate(-334.931 -132.313)"/></g><g transform="translate(7.358 14.992)"><path class="a" d="M144.578,76.111h-1.152a.386.386,0,0,0,0,.771h1.152a.386.386,0,1,0,0-.771Z" transform="translate(-143.041 -76.111)"/></g><g transform="translate(10.597 14.992)"><path class="a" d="M214.157,76.111h-7.762a.386.386,0,0,0,0,.771h7.762a.386.386,0,0,0,0-.771Z" transform="translate(-206.009 -76.111)"/></g></g></svg>