<svg xmlns="http://www.w3.org/2000/svg" width="29.115" height="26.037" viewBox="0 0 29.115 26.037"><defs><style>.a{fill:#323232;}.b{fill:#ba1f6a;}</style></defs><path class="a" d="M1.933,4.519H3.072V2.484A2.481,2.481,0,0,1,5.547,0l8.64,0h0a1.829,1.829,0,0,1,1.3.539l12.9,12.9a2.478,2.478,0,0,1,0,3.5l-8.371,8.371a2.481,2.481,0,0,1-3.5,0L8.393,17.192a.569.569,0,0,1,.8-.8l8.121,8.121a1.342,1.342,0,0,0,1.9,0l8.371-8.371a1.341,1.341,0,0,0,0-1.9l-12.9-12.9a.7.7,0,0,0-.5-.206h0l-8.64,0a1.342,1.342,0,0,0-1.34,1.341l0,4.765H6.772a.794.794,0,0,0,.565-.235,2.1,2.1,0,1,1,1.241.129A1.937,1.937,0,0,1,6.772,8.386H4.211l0,2.726a.7.7,0,0,0,.206.5L5.98,13.171a.569.569,0,1,1-.8.8L3.615,12.414a1.83,1.83,0,0,1-.539-1.3l0-2.727H1.933a1.933,1.933,0,1,1,0-3.867ZM8.842,4.41a.955.955,0,0,0-1.5.194,1.941,1.941,0,0,1,1.294,1.32A.956.956,0,0,0,8.842,4.41ZM1.933,7.249h1.14V5.656H1.933a.8.8,0,1,0,0,1.592Zm0,0"/><path class="b" d="M168,213.4a.568.568,0,0,1-.7.4l-5.838-1.625a.569.569,0,1,1,.3-1.1L167.6,212.7A.569.569,0,0,1,168,213.4Zm0,0" transform="translate(-148.064 -199.048)"/><path class="b" d="M200.826,257.368a1.677,1.677,0,1,1-2.371,0A1.666,1.666,0,0,1,200.826,257.368Zm-1.567,1.567a.539.539,0,1,0,0-.763A.54.54,0,0,0,199.259,258.935Zm0,0" transform="translate(-183.46 -242.271)"/><path class="b" d="M203.423,158.487a1.679,1.679,0,1,1,1.186.49A1.679,1.679,0,0,1,203.423,158.487Zm1.567-1.567a.539.539,0,1,0,0,.763A.536.536,0,0,0,204.99,156.92Zm0,0" transform="translate(-188.709 -146.775)"/><path class="a" d="M70.515,76.86a.569.569,0,0,1,.8,0l1.616,1.616a.568.568,0,0,1,0,.8L65.725,86.49a.569.569,0,0,1-.8,0L54.139,75.709a.569.569,0,0,1,0-.8l7.211-7.211a.568.568,0,0,1,.8,0L68.1,73.643a.569.569,0,1,1-.8.8L61.752,68.9l-6.407,6.407,9.977,9.977,6.407-6.407-1.214-1.214A.569.569,0,0,1,70.515,76.86Zm0,0" transform="translate(-47.056 -63.687)"/><path class="a" d="M376.19,256.973a.569.569,0,1,1-.4.167A.573.573,0,0,1,376.19,256.973Zm0,0" transform="translate(-369.003 -242.36)"/><path class="a" d="M110.839,201.393a.568.568,0,1,1,.4.167A.569.569,0,0,1,110.839,201.393Zm0,0" transform="translate(-88.988 -189.025)"/></svg>