<svg xmlns="http://www.w3.org/2000/svg" width="69.638" height="69.638" viewBox="0 0 69.638 69.638"><defs><style>.a{fill:#ba1f6a;}</style></defs><g transform="translate(-0.001 0)"><g transform="translate(0.001 0)"><g transform="translate(0 0)"><path class="a" d="M69.626,1.314a1.419,1.419,0,0,0-.047-.236,1.572,1.572,0,0,0-.1-.245C69.458.789,69.451.742,69.425.7a.933.933,0,0,0-.064-.071A1.571,1.571,0,0,0,69.19.436a1.479,1.479,0,0,0-.2-.17c-.026-.018-.042-.044-.068-.059-.042-.026-.089-.032-.133-.053a1.574,1.574,0,0,0-.253-.1,1.594,1.594,0,0,0-.223-.039A1.553,1.553,0,0,0,68.053,0a1.36,1.36,0,0,0-.245.041,1.4,1.4,0,0,0-.156.026L1.027,22.781a1.513,1.513,0,0,0-.053,2.845L32.1,37.587,45.552,68.725a1.516,1.516,0,0,0,1.39.913c.026,0,.05,0,.076,0a1.515,1.515,0,0,0,1.367-1.052l21.2-66.625a1.135,1.135,0,0,0,.02-.144,1.43,1.43,0,0,0,.035-.253A1.51,1.51,0,0,0,69.626,1.314ZM5.959,24.3,62.464,5.033l-29.6,29.6Zm40.767,39.51L35.036,36.745,64.81,6.97Z" transform="translate(-0.001 0)"/><path class="a" d="M23.785,240.362a1.513,1.513,0,0,0-2.141,0l-21.2,21.2A1.514,1.514,0,1,0,2.586,263.7l21.2-21.2A1.512,1.512,0,0,0,23.785,240.362Z" transform="translate(-0.001 -194.507)"/><path class="a" d="M99.044,296.362l-10.6,10.6a1.514,1.514,0,1,0,2.141,2.141l10.6-10.6a1.514,1.514,0,1,0-2.141-2.141Z" transform="translate(-71.345 -239.908)"/><path class="a" d="M1.516,221.546a1.51,1.51,0,0,0,1.071-.444l10.6-10.6a1.514,1.514,0,0,0-2.141-2.141l-10.6,10.6a1.514,1.514,0,0,0,1.071,2.585Z" transform="translate(-0.001 -168.564)"/></g></g></g></svg>