<svg xmlns="http://www.w3.org/2000/svg" width="20.407" height="17.006" viewBox="0 0 20.407 17.006"><defs><style>.a{fill:#888;}.b{fill:#ba1f6a;}</style></defs><path class="a" d="M.1,132.521,4.322,128.3a1.013,1.013,0,0,1,.721-.3h4.48v.68h-.34v5.1H8.5v-5.1H5.043a.343.343,0,0,0-.24.1l-.581.581h1.56a.68.68,0,0,1,.68.68V133.1a.68.68,0,0,1-.68.68H.68V136.5a.34.34,0,0,0,.34.34h.707a2.378,2.378,0,0,1,4.707,0h4.816a2.378,2.378,0,0,1,4.707,0h.707a.34.34,0,0,0,.34-.34v-3.4h.68v3.4a1.02,1.02,0,0,1-1.02,1.02h-.707a2.373,2.373,0,0,1-.691,1.36h5.14v.68H4.081a2.381,2.381,0,0,1-2.354-2.041H1.02A1.02,1.02,0,0,1,0,136.5v-3.741A.34.34,0,0,1,.1,132.521Zm15.206,4.662a1.7,1.7,0,1,0-1.7,1.7A1.7,1.7,0,0,0,15.306,137.183Zm-3.364,1.7a2.372,2.372,0,0,1-.691-1.36H6.435a2.373,2.373,0,0,1-.691,1.36Zm-7.861,0a1.7,1.7,0,1,0-1.7-1.7A1.7,1.7,0,0,0,4.081,138.884Zm1.7-5.782v-3.061H3.542L.68,132.9v.2Zm0,0" transform="translate(0 -122.558)"/><path class="a" d="M152.68,336H152v.68h.68Zm0,0" transform="translate(-138.735 -321.715)"/><path class="a" d="M376.68,336H376v.68h.68Zm0,0" transform="translate(-372.259 -321.715)"/><path class="a" d="M1.7,312H0v.68H1.7Zm0,0" transform="translate(18.707 -298.735)"/><path class="a" d="M17.02,280H16v.68h1.02Zm0,0" transform="translate(2.707 -268.096)"/><path class="a" d="M24.68,248H24v.68h.68Zm0,0" transform="translate(-5.293 -237.456)"/><path class="a" d="M305.361,280H304v.68h1.36Zm0,0" transform="translate(-297.878 -268.096)"/><path class="a" d="M5.1,10.2a5.1,5.1,0,1,1,5.1-5.1A5.1,5.1,0,0,1,5.1,10.2ZM5.1.68A4.422,4.422,0,1,0,9.523,5.1,4.422,4.422,0,0,0,5.1.68Zm0,0" transform="translate(10.204)"/><path class="b" d="M226.393,43.987a.793.793,0,0,1-.792-.792.474.474,0,1,0-.948,0,1.743,1.743,0,0,0,1.266,1.674v.384a.474.474,0,0,0,.948,0v-.384a1.74,1.74,0,0,0-.474-3.414.792.792,0,1,1,.792-.792.474.474,0,0,0,.948,0,1.742,1.742,0,0,0-1.266-1.674V38.7a.474.474,0,0,0-.948,0v.284a1.74,1.74,0,0,0,.474,3.414.792.792,0,1,1,0,1.584Zm0,0" transform="translate(-211.152 -36.878)"/></svg>