<svg xmlns="http://www.w3.org/2000/svg" width="16.22" height="22.5" viewBox="0 0 16.22 22.5"><defs><style>.a{fill:#323232;}</style></defs><g transform="translate(-71.453)"><g transform="translate(71.453)"><path class="a" d="M87.653,20.962c0-.017.041.2-.963-4.841a2.168,2.168,0,0,0-1.349-1.63c-.1-.041.183.046-2.877-.857l-.867-.586V12.5a4.363,4.363,0,0,0,2.348-3.877V8.567A1.446,1.446,0,0,0,85.2,7.214a1.249,1.249,0,0,0-.252-.747c0-.026,0-.174,0-1.092a5.376,5.376,0,0,0-9.265-3.711.33.33,0,1,0,.477.455,4.716,4.716,0,0,1,8.128,3.256v.589a1.737,1.737,0,0,0-.347-.1,1.382,1.382,0,0,0-.633-1.422,8.155,8.155,0,0,0-7.467-.058,1.158,1.158,0,0,0-.638,1.039v.441a1.742,1.742,0,0,0-.347.1,5.429,5.429,0,0,1,.47-2.643.33.33,0,1,0-.593-.288A5.326,5.326,0,0,0,74.2,5.375c0,.755,0,1.066,0,1.092a1.249,1.249,0,0,0-.252.747,1.446,1.446,0,0,0,1.257,1.352v0a4.457,4.457,0,0,0,2.323,3.909v.576l-.846.572c-3.062.9-2.8.823-2.9.865a2.175,2.175,0,0,0-1.345,1.629c-1,5.039-.961,4.824-.963,4.841A1.237,1.237,0,0,0,72.809,22.5h8.136a.33.33,0,0,0,0-.659H75.133v-3.1a7.667,7.667,0,0,0-.921-3.694L76.06,14.5c1.7,4.387,5.4,4.436,7.129.036l.01,0,1.714.506a7.666,7.666,0,0,0-.921,3.694v3.1h-1.51a.33.33,0,0,0,0,.659h3.834A1.237,1.237,0,0,0,87.653,20.962ZM83.944,6.538a.681.681,0,0,1,0,1.352ZM75.206,7.89a.681.681,0,0,1,0-1.352Zm-.732,10.844v3.107c-1.429-.042-1.978.111-2.235-.185a.8.8,0,0,1-.115-.593l.958-4.813a1.507,1.507,0,0,1,.539-.906A6.756,6.756,0,0,1,74.474,18.734Zm7.337-4.746L80.678,15.16l-.589-.437L81.3,13.639Zm-2.242.317-1.38-1.24v-.291a4.421,4.421,0,0,0,2.749.008v.293Zm-2.53-2.992A3.809,3.809,0,0,1,75.865,8.57V5.421a.5.5,0,0,1,.276-.451,7.477,7.477,0,0,1,6.868.055.506.506,0,0,1,.276.451V8.628A3.7,3.7,0,0,1,77.039,11.313Zm.8,2.327,1.206,1.084-.589.437-.958-.991-.175-.181Zm.748,3.217a4.973,4.973,0,0,1-1.895-2.546l.021-.006.446.462c1.026,1.023,1.018,1.144,1.238,1.159l.241.557Zm.631.251.047-.342h.6l.05.365A1.85,1.85,0,0,1,79.221,17.107Zm.708-1H79.2l-.22-.509.586-.434.586.434Zm.623.816-.062-.452.235-.544h0a.31.31,0,0,0,.063-.008.332.332,0,0,0,.059-.02.34.34,0,0,0,.055-.031.376.376,0,0,0,.049-.041l1.468-1.519.135.04A4.773,4.773,0,0,1,80.552,16.922Zm2.642-2.386h0Zm0,0Zm0,0h0Zm3.7,7.121c-.257.3-.811.143-2.235.185,0-3.785,0-3,0-3.113a7.042,7.042,0,0,1,.852-3.385,1.508,1.508,0,0,1,.539.906L87,21.063A.8.8,0,0,1,86.886,21.656Z" transform="translate(-71.453)"/></g></g></svg>