<svg xmlns="http://www.w3.org/2000/svg" width="72.869" height="76.517" viewBox="0 0 72.869 76.517"><defs><style>.a,.b,.c{fill:#ba1f6a;}.b,.c{stroke:#ba1f6a;}.c{stroke-width:0.7px;}</style></defs><g transform="translate(5.138 6.761)"><path class="a" d="M329.194,392a1.182,1.182,0,0,0-1.182,1.182v2.365a1.182,1.182,0,1,0,2.365,0v-2.365A1.182,1.182,0,0,0,329.194,392Zm0,0" transform="translate(-279.537 -334.067)"/><path class="a" d="M315.559,440a1.182,1.182,0,0,0-1.182,1.182v1.182h-1.182a1.182,1.182,0,0,0,0,2.365h2.365a1.182,1.182,0,0,0,1.182-1.182v-2.365A1.182,1.182,0,0,0,315.559,440Zm0,0" transform="translate(-265.902 -374.974)"/><path class="a" d="M257.223,456h-4.467a1.182,1.182,0,1,0,0,2.365h4.467a1.182,1.182,0,0,0,0-2.365Zm0,0" transform="translate(-214.396 -388.609)"/><path class="a" d="M136.332,456h-4.466a1.182,1.182,0,0,0,0,2.365h4.466a1.182,1.182,0,0,0,0-2.365Zm0,0" transform="translate(-111.372 -388.609)"/><path class="a" d="M196.78,456h-4.465a1.182,1.182,0,0,0,0,2.365h4.465a1.182,1.182,0,0,0,0-2.365Zm0,0" transform="translate(-162.887 -388.609)"/><path class="a" d="M75.887,456H71.421a1.182,1.182,0,0,0,0,2.365h4.467a1.182,1.182,0,0,0,0-2.365Zm0,0" transform="translate(-59.86 -388.609)"/><path class="a" d="M27.559,442.365H26.376v-1.182a1.182,1.182,0,1,0-2.365,0v2.365a1.182,1.182,0,0,0,1.182,1.182h2.365a1.182,1.182,0,1,0,0-2.365Zm0,0" transform="translate(-20.465 -374.974)"/><path class="a" d="M24.012,178.494a1.182,1.182,0,0,0,2.365,0v-4.945a1.182,1.182,0,0,0-2.365,0Zm0,0" transform="translate(-20.465 -146.894)"/><path class="a" d="M24.012,245.4a1.182,1.182,0,1,0,2.365,0v-4.944a1.182,1.182,0,0,0-2.365,0Zm0,0" transform="translate(-20.465 -203.912)"/><path class="a" d="M24.012,379.223a1.182,1.182,0,1,0,2.365,0V374.28a1.182,1.182,0,0,0-2.365,0Zm0,0" transform="translate(-20.465 -317.958)"/><path class="a" d="M24.012,312.3a1.182,1.182,0,1,0,2.365,0v-4.946a1.182,1.182,0,1,0-2.365,0Zm0,0" transform="translate(-20.465 -260.927)"/><path class="a" d="M25.194,112.766a1.182,1.182,0,0,0,1.182-1.182v-4.944a1.182,1.182,0,0,0-2.365,0v4.944A1.182,1.182,0,0,0,25.194,112.766Zm0,0" transform="translate(-20.465 -89.872)"/><path class="b" d="M85.076,1.678a15.956,15.956,0,0,1,15.938,15.938.839.839,0,0,0,1.678,0,17.616,17.616,0,0,0-35.232,0A34.935,34.935,0,0,0,84.649,47.722a.839.839,0,0,0,.854,0A35.318,35.318,0,0,0,96.8,37.036a34.977,34.977,0,0,0,5.59-14.836.839.839,0,1,0-1.664-.218,33.515,33.515,0,0,1-15.655,24.04,33.447,33.447,0,0,1-15.938-28.4A15.956,15.956,0,0,1,85.076,1.678Z" transform="translate(-35.461 4.839)"/><path class="b" d="M150.19,71.825A10.918,10.918,0,0,0,139.285,82.73a.839.839,0,0,0,1.678,0,9.218,9.218,0,1,1,.525,3.076.839.839,0,0,0-1.582.559,10.906,10.906,0,1,0,10.284-14.54Z" transform="translate(-100.576 -60.275)"/><path class="c" d="M147.387,71.825a8.111,8.111,0,0,0-8.1,8.1.623.623,0,1,0,1.246,0,6.848,6.848,0,1,1,.39,2.285.623.623,0,0,0-1.175.415,8.1,8.1,0,1,0,7.641-10.8Z" transform="translate(-95.254 137.614) rotate(-82)"/></g></svg>