<svg xmlns="http://www.w3.org/2000/svg" width="220.791" height="62.505" viewBox="0 0 220.791 62.505">
  <g id="Logo" transform="translate(-50 -45)">
    <path id="Path_22" data-name="Path 22" d="M69.078,19.494C65.169,11.337,59.071,5.511,52.338,3.51a47.989,47.989,0,0,0-25.271-.187c-9.2,2.451-16.409,7.5-20.233,14.221h0A29.807,29.807,0,0,0,3.5,27.135c-1.323,7.547,1.4,15.73,7.7,23.04,5.393,6.267,13.085,11.27,20.013,13.034a34.226,34.226,0,0,0,8.438,1.018,40.8,40.8,0,0,0,15.561-3.112c8.607-3.621,14.535-9.786,16.663-17.376C73.954,36.378,72.928,27.542,69.078,19.494Zm-.432,23.379C66.89,49.1,62.141,54.254,55.2,57.519a27.984,27.984,0,0,0,8.429-11.652c5.088-8.421,4.113-11.414,3.121-14.594-.161-.534-.339-1.085-.466-1.7C62.981,15.288,53.449,6.461,40.144,5.4a52.633,52.633,0,0,0-5.325-.17,43.249,43.249,0,0,1,16.545,1.4c5.826,1.7,11.177,6.928,14.679,14.246S70.477,36.353,68.645,42.874ZM6.809,27.695a26.441,26.441,0,0,1,3-8.565h0A26.011,26.011,0,0,1,21.539,8.835c-5.258,3.545-8.412,9.82-10.176,19.4a37.15,37.15,0,0,0,.5,17.376C7.555,39.728,5.783,33.461,6.809,27.695ZM25.728,41.509c2.807,6.292,8.353,9.413,15.612,8.76,6.428-.577,10.8-3.392,12.33-8.014,1.7-5.037-.526-11.584-5.224-15.569a12.949,12.949,0,0,0-14.416-2.01A9.46,9.46,0,0,0,28.467,31.1a10.057,10.057,0,0,0,1.187,6.894,6.852,6.852,0,0,0,.432,1.28,7.412,7.412,0,0,0,3.952,3.9c4.673,4.053,8.158,3.46,9.837,2.739,3.477-1.492,5.639-6.258,5.029-11.083-.594-4.689-3.519-7.92-7.827-8.65a9.684,9.684,0,0,0-9.091,3.6,11.422,11.422,0,0,0-1.085,1.56,7.149,7.149,0,0,1,4.24-4.554,10.609,10.609,0,0,1,11.77,1.7c4.011,3.392,5.936,8.9,4.52,13.1C50.218,45.231,46.572,47.521,41.153,48c-6.148.543-10.838-2.069-13.195-7.378-3.468-7.768-1.272-18.766,4.783-24.007,3.053-2.646,8.361-4.851,16.333-.339,7.208,4.045,10.642,15.7,9.667,24.134a11.584,11.584,0,0,1-5.682,8.845c-4.935,3.019-12.839,3.477-19.648,1.136-7.217-2.468-9.328-8.31-9.769-12.779a25.584,25.584,0,0,1,.314-7.157,23.074,23.074,0,0,0,1.772,11.058Zm13.288-8.853c4.639,4.52,5.707,7.284,5.207,8.285-.17.348-1.128,1.442-6.19.848a10.8,10.8,0,0,1-2.68-.636,24.907,24.907,0,0,1-1.925-1.959,12.322,12.322,0,0,1-1.459-2.01,7.751,7.751,0,0,1,1.883-5.978,7.208,7.208,0,0,1,6.784-2.773c3.214.543,5.4,3.027,5.86,6.64a10.888,10.888,0,0,1-.144,3.57C45.5,36.1,42.959,33.249,40.67,31.01l-.619-.611-1.7,1.645Zm-17.723,5.19c.772,7.259,4.808,12.5,11.355,14.738,7.581,2.6,16.112,2.069,21.717-1.357a13.848,13.848,0,0,0,6.784-10.558c1.06-9.167-2.8-21.887-10.871-26.458-6.53-3.689-12.72-3.841-17.681-.5a20.073,20.073,0,0,1,3.7-2.866,11.464,11.464,0,0,1,12.635.11c8.48,5.427,16.112,16.434,14.416,26.983a33.724,33.724,0,0,1-1.857,6.937C60.36,46.7,59,49.768,57.3,52.117v.466l-.034-.416c-5.258,6.479-13.28,9.574-22.167,8.48-1.043-.153-2.061-.348-3.053-.594A36.592,36.592,0,0,1,17.79,52.117l-.314-.4c-4.24-5.605-5.554-13.568-3.816-23.074,2.79-15.188,8.972-21.1,22.048-21.1h1.908a17.808,17.808,0,0,0-2.629,1.28c-8.548,5.1-14.832,18.376-13.7,29.019Z" transform="translate(46.825 43.278)" fill="#ba1f6a"/>
    <path id="Path_23" data-name="Path 23" d="M112.237,38.773l-7.225-11.287a18.656,18.656,0,0,0-2.807-3.341,5.156,5.156,0,0,0-3.155-1.3V22h3.994a5.436,5.436,0,0,1,3.6,1.289,14.7,14.7,0,0,1,2.832,3.392l5.936,9.65L124.38,22h2.1L116.477,38.273V49.628h-4.24Z" transform="translate(32.253 40)" fill="#ba1f6a"/>
    <path id="Path_24" data-name="Path 24" d="M133.2,49.963a5.156,5.156,0,0,1-1.916-4.393,4.74,4.74,0,0,1,2.858-4.554,18.463,18.463,0,0,1,8.022-1.408h1.094q0-3.994-1.094-5.521a3.663,3.663,0,0,0-3.188-1.535,4.8,4.8,0,0,0-2.926.848,4.63,4.63,0,0,0-1.569,2.832h-2.018a12.306,12.306,0,0,1,.17-2.315,3.036,3.036,0,0,1,.848-1.594,4.859,4.859,0,0,1,2.451-1.111,18.885,18.885,0,0,1,3.85-.356,7.9,7.9,0,0,1,5.673,1.908c1.357,1.289,2.035,3.579,2.035,6.886V50.989h-2.476L143.541,49.1h-.2a5.885,5.885,0,0,1-2.188,1.637,8.107,8.107,0,0,1-3.485.678,7.183,7.183,0,0,1-4.461-1.45Zm10.057-3.087V41.33h-1.094a8.573,8.573,0,0,0-4.766,1.111,3.562,3.562,0,0,0-1.7,3.129,3.9,3.9,0,0,0,1.026,2.9,3.621,3.621,0,0,0,2.629,1.009A4.324,4.324,0,0,0,143.261,46.876Z" transform="translate(27.355 35.159)" fill="#ba1f6a"/>
    <path id="Path_25" data-name="Path 25" d="M155.047,27.181a8.65,8.65,0,0,0-1.849-3.214,4.494,4.494,0,0,0-2.688-1.06V22.1l1.552-.085a9.243,9.243,0,0,1,4.367,1.018,7.322,7.322,0,0,1,3.112,4.147l5.622,15.264,4.282-12.228-1.085-3A8.98,8.98,0,0,0,166.47,24a4.494,4.494,0,0,0-2.688-1.06v-.806a3.929,3.929,0,0,0,.628-.042,5.626,5.626,0,0,1,.848-.042,9.218,9.218,0,0,1,4.367,1.018,7.322,7.322,0,0,1,3.112,4.147l5.707,15.434L185.762,22h1.891l-9.888,27.645h-1.052L170.43,32.829l-5.936,16.816H163.4Z" transform="translate(24.431 40)" fill="#ba1f6a"/>
    <path id="Path_26" data-name="Path 26" d="M198.026,49.953a5.156,5.156,0,0,1-1.908-4.384,4.74,4.74,0,0,1,2.858-4.562A18.589,18.589,0,0,1,207,39.6h1.085c0-2.654-.356-4.494-1.085-5.521a3.7,3.7,0,0,0-3.2-1.535,4.774,4.774,0,0,0-2.917.848,4.706,4.706,0,0,0-1.577,2.832H197.3a13.017,13.017,0,0,1,.161-2.307,3.061,3.061,0,0,1,.848-1.594,4.859,4.859,0,0,1,2.459-1.119,18.86,18.86,0,0,1,3.841-.356,7.87,7.87,0,0,1,5.648,1.933q2.044,1.933,2.044,6.886V50.979h-2.485L208.346,49.1h-.212a5.868,5.868,0,0,1-2.179,1.637,8.243,8.243,0,0,1-3.485.67,7.208,7.208,0,0,1-4.444-1.45Zm10.057-3.087V41.32H207.04a8.48,8.48,0,0,0-4.766,1.119,3.536,3.536,0,0,0-1.7,3.129,3.858,3.858,0,0,0,1.026,2.892,3.6,3.6,0,0,0,2.629,1.009A4.3,4.3,0,0,0,208.083,46.866Z" transform="translate(17.501 35.166)" fill="#ba1f6a"/>
    <path id="Path_27" data-name="Path 27" d="M223.057,36.407a6.606,6.606,0,0,0-.594-3.172,2.459,2.459,0,0,0-2.349-1.026h-.424v-.967h3.57a5.342,5.342,0,0,1,2.374.416,2.476,2.476,0,0,1,1.2,1.391,8.429,8.429,0,0,1,2.247-1.56,6.835,6.835,0,0,1,3-.67,4.622,4.622,0,0,1,2.646.67,4.63,4.63,0,0,1,.78.848,10.738,10.738,0,0,1,.7,1.085l-1.832,1.348a3.239,3.239,0,0,0-1.323-1.009,4.69,4.69,0,0,0-1.916-.382,5.088,5.088,0,0,0-2.29.509,4.325,4.325,0,0,0-1.654,1.382c0,.339.042.848.042,1.467V50.976h-4.24Z" transform="translate(13.916 35.188)" fill="#ba1f6a"/>
    <path id="Path_28" data-name="Path 28" d="M244.913,47.193a12.559,12.559,0,0,1-2.035-7.386A12.144,12.144,0,0,1,245,32.4a7.166,7.166,0,0,1,6.157-2.883,10.871,10.871,0,0,1,5.037,1.264V27.189a6.53,6.53,0,0,0-.594-3.172,2.459,2.459,0,0,0-2.349-1.026h-.755V22h4.113a5.088,5.088,0,0,1,2.315.424,2.391,2.391,0,0,1,1.128,1.509,11.5,11.5,0,0,1,.339,3.231V49.669h-2.476l-1.467-1.883h-.212a6.784,6.784,0,0,1-2.078,1.7,7.386,7.386,0,0,1-3.392.653,6.725,6.725,0,0,1-5.851-2.943Zm9.532.509a7.735,7.735,0,0,0,1.747-1.959V32.5a15.8,15.8,0,0,0-2.1-.941,5.266,5.266,0,0,0-1.806-.322,3.96,3.96,0,0,0-3.757,2.332,13.763,13.763,0,0,0-1.2,6.241,14.331,14.331,0,0,0,1.136,6.216,3.68,3.68,0,0,0,3.485,2.349A4.087,4.087,0,0,0,254.445,47.7Z" transform="translate(10.394 40.008)" fill="#ba1f6a"/>
  </g>
</svg>
