<svg id="Cart" xmlns="http://www.w3.org/2000/svg" width="42" height="45.2" viewBox="0 0 42 45.2">
  <g id="Basket">
    <g id="Group_143" data-name="Group 143" transform="translate(17.181 30.461)">
      <g id="Group_142" data-name="Group 142">
        <path id="Path_136" data-name="Path 136" d="M214.45,349.8a.66.66,0,1,0-1.319.063l.45,9.275a.66.66,0,0,0,.659.628h.033a.659.659,0,0,0,.627-.691Z" transform="translate(-213.13 -349.171)" fill="#323232"/>
      </g>
    </g>
    <g id="Group_145" data-name="Group 145" transform="translate(11.58 34.79)">
      <g id="Group_144" data-name="Group 144">
        <path id="Path_137" data-name="Path 137" d="M151.5,403.987l-.734-5.042a.66.66,0,0,0-1.307.19l.734,5.042a.66.66,0,0,0,.653.566.714.714,0,0,0,.1-.007A.66.66,0,0,0,151.5,403.987Z" transform="translate(-149.45 -398.38)" fill="#323232"/>
      </g>
    </g>
    <g id="Group_147" data-name="Group 147" transform="translate(10.965 30.556)">
      <g id="Group_146" data-name="Group 146">
        <path id="Path_138" data-name="Path 138" d="M143.948,352.016l-.173-1.19a.66.66,0,1,0-1.307.19l.173,1.19a.66.66,0,0,0,.653.566.714.714,0,0,0,.1-.007A.661.661,0,0,0,143.948,352.016Z" transform="translate(-142.46 -350.26)" fill="#323232"/>
      </g>
    </g>
    <g id="Group_149" data-name="Group 149" transform="translate(28.277 38.741)">
      <g id="Group_148" data-name="Group 148">
        <path id="Path_139" data-name="Path 139" d="M340.174,443.307a.66.66,0,0,0-.749.559l-.158,1.09a.66.66,0,0,0,.559.749.715.715,0,0,0,.1.007.66.66,0,0,0,.653-.566l.158-1.09A.661.661,0,0,0,340.174,443.307Z" transform="translate(-339.26 -443.3)" fill="#323232"/>
      </g>
    </g>
    <path id="Path_143" data-name="Path 143" d="M126.625,264.14a1.513,1.513,0,0,0-1.335.812h2.671A1.513,1.513,0,0,0,126.625,264.14Z" transform="translate(-115.836 -241.16)" fill="none"/>
    <path id="Path_144" data-name="Path 144" d="M354.785,264.14a1.513,1.513,0,0,0-1.335.812h2.671A1.513,1.513,0,0,0,354.785,264.14Z" transform="translate(-323.925 -241.16)" fill="none"/>
    <path id="Path_145" data-name="Path 145" d="M240.705,264.14a1.513,1.513,0,0,0-1.335.812h2.671A1.513,1.513,0,0,0,240.705,264.14Z" transform="translate(-219.88 -241.16)" fill="none"/>
    <path id="Path_146" data-name="Path 146" d="M65.86,273.363h3.822v0H65.86Z" transform="translate(-61.634 -249.568)" fill="none"/>
    <path id="Path_147" data-name="Path 147" d="M353.43,273.363H356.1l0,0h-2.671S353.431,273.362,353.43,273.363Z" transform="translate(-323.906 -249.568)" fill="none"/>
    <path id="Path_148" data-name="Path 148" d="M399.771,273.363h3.95v0H399.77Z" transform="translate(-366.17 -249.568)" fill="none"/>
    <path id="Path_149" data-name="Path 149" d="M294.03,273.363h3.822v0H294.03Z" transform="translate(-269.732 -249.568)" fill="none"/>
    <path id="Path_150" data-name="Path 150" d="M171.6,273.363h3.95v0H171.6A0,0,0,0,1,171.6,273.363Z" transform="translate(-158.072 -249.568)" fill="none"/>
    <path id="Path_151" data-name="Path 151" d="M239.35,273.363h2.673l0,0h-2.671A0,0,0,0,1,239.35,273.363Z" transform="translate(-219.862 -249.568)" fill="none"/>
    <path id="Path_152" data-name="Path 152" d="M125.27,273.363h2.673l0,0h-2.671A0,0,0,0,1,125.27,273.363Z" transform="translate(-115.818 -249.568)" fill="none"/>
    <path id="Path_153" data-name="Path 153" d="M67.873,335.855a3.041,3.041,0,0,0,2.922,2.159H90.384a3.039,3.039,0,0,0,2.921-2.159L97.438,322.4H63.74Zm20.648-5.039.749-5.144a.66.66,0,0,1,1.307.19l-.749,5.144a.66.66,0,0,1-.653.566.714.714,0,0,1-.1-.007A.661.661,0,0,1,88.521,330.816Zm-5.481-5.175a.661.661,0,1,1,1.32.063l-.45,9.275a.659.659,0,0,1-.659.628h-.033a.661.661,0,0,1-.628-.691Z" transform="translate(-59.7 -294.294)" fill="none"/>
    <path id="Path_154" data-name="Path 154" d="M71.14,288.4H33.675a.835.835,0,1,0,0,1.67H71.141a.835.835,0,1,0,0-1.67Z" transform="translate(-31.519 -263.285)" fill="none"/>
    <path id="Path_155" data-name="Path 155" d="M278.65,362.7h.033a.66.66,0,0,0,.659-.628l.45-9.275a.661.661,0,0,0-1.32-.063l-.45,9.275A.661.661,0,0,0,278.65,362.7Z" transform="translate(-255.131 -321.383)" fill="#323232"/>
    <path id="Path_156" data-name="Path 156" d="M345.926,359.628a.715.715,0,0,0,.1.007.66.66,0,0,0,.653-.566l.749-5.144a.66.66,0,1,0-1.307-.19l-.749,5.144A.661.661,0,0,0,345.926,359.628Z" transform="translate(-316.546 -322.358)" fill="#323232"/>
    <path id="Path_157" data-name="Path 157" d="M57.442,273.363h-.75v0h-1.32v0h-3.95v0h-1.4l0,0H47.345l0,0h-1.4v0H42.119v0H39.981l0,0H37.31l0,0H35.3v0h-3.95v0h-1.4l0,0H27.275l0,0h-1.4v0H22.046v0h-1.32v0h-.75a2.156,2.156,0,1,0,0,4.312h.5l4.252,13.843a4.356,4.356,0,0,0,4.185,3.092H48.5a4.355,4.355,0,0,0,4.185-3.092l4.252-13.843h.5a2.156,2.156,0,1,0,0-4.312Zm-6.017,17.766a3.041,3.041,0,0,1-2.921,2.159H28.915a3.041,3.041,0,0,1-2.922-2.159L21.86,277.675h33.7Zm6.017-14.776H19.976a.835.835,0,1,1,0-1.67H57.442a.835.835,0,1,1,0,1.67Z" transform="translate(-17.82 -249.568)" fill="#323232"/>
    <path id="Path_158" data-name="Path 158" d="M95.357,12.541A17.1,17.1,0,0,0,89,5.45,16.858,16.858,0,0,0,63.248,19.773c0,2.314-.072,4.62,0,6.931h1.32V19.773a15.543,15.543,0,0,1,31.085,0V26.7H97c.121-.005,0-5.447,0-5.911A18.42,18.42,0,0,0,95.357,12.541Z" transform="translate(-59.222 -2.91)" fill="#323232"/>
  </g>
  <g id="Flowers" transform="translate(4.07 14.849)" opacity="0">
    <path id="Path_140" data-name="Path 140" d="M112.059,249.12a2.843,2.843,0,0,0-2.739,2.132h1.4a1.5,1.5,0,0,1,2.671,0h1.4A2.843,2.843,0,0,0,112.059,249.12Z" transform="translate(-104.176 -237.311)" fill="#ba1f6a"/>
    <path id="Path_141" data-name="Path 141" d="M340.229,249.12a2.843,2.843,0,0,0-2.739,2.132h1.4a1.5,1.5,0,0,1,2.671,0h1.4A2.844,2.844,0,0,0,340.229,249.12Z" transform="translate(-314.69 -237.311)" fill="#ba1f6a"/>
    <path id="Path_142" data-name="Path 142" d="M83.787,114.8a3.77,3.77,0,0,0-2.714-1.843,1.964,1.964,0,0,0-.213.008,1.8,1.8,0,0,0-.21.031,2.2,2.2,0,0,0-.786-1.5,4.65,4.65,0,0,0-.149-2.8,4.742,4.742,0,0,0-1.48-2.159,2.417,2.417,0,0,0-1.976-.553c-.087-1.4-1.689-2.482-3.719-2.482s-3.616,1.07-3.717,2.462a2.2,2.2,0,0,0-1.2.177,2.165,2.165,0,0,0-1.315-.156c-.087-1.4-1.689-2.482-3.719-2.482s-3.616,1.069-3.717,2.461c-1.292-.2-2.7.932-3.338,2.735a4.706,4.706,0,0,0-.172,2.713,2.239,2.239,0,0,0-.881,1.561,1.994,1.994,0,0,0-.524-.006s-.276.078-.276.078a5.2,5.2,0,0,0-1.546,1.011,4.129,4.129,0,0,0-.495.609,5.339,5.339,0,0,0-.5,1.041,5.151,5.151,0,0,0-.3,1.737h1.231a3.894,3.894,0,0,1,.231-1.328,3.55,3.55,0,0,1,1.076-1.6,1.185,1.185,0,0,1,1.042-.3,1.84,1.84,0,0,1,.494.3.616.616,0,0,0,.955-.705,2.183,2.183,0,0,1-.165-.7,1.205,1.205,0,0,1,.7-.929l0,0a3.458,3.458,0,0,1,1.535-.43h.009c.08,0,.162-.007.243-.007a3.217,3.217,0,0,1,2.115.675,2.662,2.662,0,0,0,.323.44.693.693,0,0,1,.051.254,2.417,2.417,0,0,1-.216.828.616.616,0,0,0,.206.739.565.565,0,0,0,.088.053l.031.013a.634.634,0,0,0,.062.024c.012,0,.025.006.039.009l.058.012.042,0c.014,0,.028,0,.042,0h.034a.627.627,0,0,0,.088-.012l.013,0a.522.522,0,0,0,.086-.026l.011,0a.577.577,0,0,0,.085-.042l.007,0a.621.621,0,0,0,.081-.059c.085-.074.163-.135.233-.187a1.681,1.681,0,0,1,.414-.236c.024-.008.048-.015.071-.021l.048-.009.022,0a.954.954,0,0,1,.474.077l.014,0a1.868,1.868,0,0,1,.412.247,3.55,3.55,0,0,1,1.076,1.6,3.914,3.914,0,0,1,.231,1.328h1.875a1.4,1.4,0,0,1,2.492,0H70.8a3.894,3.894,0,0,1,.231-1.328,3.55,3.55,0,0,1,1.076-1.6,1.865,1.865,0,0,1,.414-.248l.012,0a.955.955,0,0,1,.474-.077l.021,0a.488.488,0,0,1,.05.009c.024.006.048.012.071.021a1.84,1.84,0,0,1,.494.3.616.616,0,0,0,.955-.706,2.174,2.174,0,0,1-.165-.7.706.706,0,0,1,.051-.254,2.715,2.715,0,0,0,.324-.44,3.215,3.215,0,0,1,2.115-.675,3.566,3.566,0,0,1,1.854.479,1.164,1.164,0,0,1,.636.891,2.426,2.426,0,0,1-.216.828.617.617,0,0,0,.973.7,2.143,2.143,0,0,1,.647-.424,1.185,1.185,0,0,1,1.042.3,4.554,4.554,0,0,1,1.086,1.414,2.954,2.954,0,0,1,.3,1.511H84.4A3.139,3.139,0,0,0,83.787,114.8Zm-21.193-2.306a1.4,1.4,0,0,1-.931-.355,2.432,2.432,0,0,0-.347-.468,1.393,1.393,0,0,1-.129-.584,1.407,1.407,0,1,1,1.407,1.407Zm0-4.046a2.642,2.642,0,0,0-2.625,2.368,5.114,5.114,0,0,0-1.765-.3c-.071,0-.143,0-.213,0l-.038,0c-.062,0-.125.007-.186.011l-.017,0a5,5,0,0,0-1.251.261,3.718,3.718,0,0,1,.2-1.685c.488-1.385,1.509-2.109,2.119-1.894a1.84,1.84,0,0,1,.494.3.616.616,0,0,0,.955-.706,2.174,2.174,0,0,1-.165-.7c0-.648,1.023-1.37,2.49-1.37s2.49.721,2.49,1.37a2.426,2.426,0,0,1-.216.828.617.617,0,0,0,.973.7,3.288,3.288,0,0,1,.321-.249l-.022.032c-.021.03-.042.059-.062.089l-.037.056c-.02.03-.039.06-.057.09l-.037.06-.053.091-.036.063c-.017.031-.034.062-.05.094l-.034.065c-.016.032-.032.064-.048.1l-.032.066c-.016.034-.031.067-.046.1l-.029.064c-.016.038-.031.076-.047.113l-.023.056c-.022.057-.044.115-.064.172s-.039.116-.057.173l-.016.054c-.012.041-.025.082-.036.122-.006.02-.011.04-.016.06-.011.042-.021.083-.031.125l-.012.053c-.013.058-.026.117-.037.175l0,.014c-.01.053-.02.107-.028.161,0,.018-.006.036-.008.055-.006.041-.011.081-.016.122l-.007.059q-.007.063-.012.126c0,.016,0,.032,0,.048,0,.057-.008.114-.01.172a.232.232,0,0,1,0,.024c0,.048,0,.1,0,.145,0,.018,0,.036,0,.054l0,.117,0,.056v.009A2.647,2.647,0,0,0,62.594,108.443Zm7.281,7.262a5.436,5.436,0,0,0-.213.79,2.626,2.626,0,0,0-4.1-.117,5.453,5.453,0,0,0-.189-.673,5.337,5.337,0,0,0-.524-1.086.617.617,0,0,0,.389-.808,2.179,2.179,0,0,1-.165-.7c0-.429.422-.859,1.1-1.124h0a3.869,3.869,0,0,1,1.387-.245c1.468,0,2.49.721,2.49,1.37a2.426,2.426,0,0,1-.216.828.615.615,0,0,0,.46.845A5.14,5.14,0,0,0,69.875,115.7Zm3.943-4.039a2.458,2.458,0,0,0-.347.468,1.4,1.4,0,1,1,.475-1.051A1.379,1.379,0,0,1,73.818,111.666Zm4.933-.834a4.915,4.915,0,0,0-1.327-.3l-.032,0-.187-.012-.051,0c-.074,0-.149,0-.223,0a5.506,5.506,0,0,0-.735.048h0a4.875,4.875,0,0,0-1.03.253,2.639,2.639,0,0,0-5.264.259,4.837,4.837,0,0,0-2.334-.561,5.384,5.384,0,0,0-1.14.121.006.006,0,0,0,0,0c0-.053-.007-.107-.007-.161,0-.015,0-.029,0-.044,0-.043,0-.085,0-.129,0-.015,0-.03,0-.044,0-.056.006-.112.011-.169l0-.021c0-.05.011-.1.018-.152l.007-.05c.007-.047.015-.094.024-.141,0-.011,0-.024.007-.035.011-.057.024-.116.038-.173,0-.015.007-.029.011-.044.011-.045.024-.09.037-.136l.015-.05c.017-.057.035-.115.056-.172v0c.016-.045.033-.09.05-.135l.019-.047.034-.083c.008-.02.017-.039.026-.059l.03-.067c.01-.022.021-.044.031-.065l.028-.056c.012-.024.024-.047.037-.071s.016-.03.024-.044l.043-.077.01-.017q.084-.143.177-.273l.021-.03.05-.067.029-.037.048-.059.035-.042.045-.052.044-.047.039-.042.062-.062.022-.022c.03-.029.061-.056.092-.082h0a2.058,2.058,0,0,1,.295-.212l0,0a1,1,0,0,1,.824-.147,1.84,1.84,0,0,1,.494.3.616.616,0,0,0,.955-.705,2.179,2.179,0,0,1-.165-.7c0-.648,1.023-1.37,2.49-1.37s2.49.721,2.49,1.37a2.417,2.417,0,0,1-.216.828.616.616,0,0,0,.973.7,2.143,2.143,0,0,1,.647-.424,1.185,1.185,0,0,1,1.042.3,3.55,3.55,0,0,1,1.076,1.6A3.7,3.7,0,0,1,78.751,110.832Z" transform="translate(-50.838 -103.5)" fill="#ba1f6a"/>
  </g>
  <g id="Cart_qty" data-name="Cart qty" transform="translate(-1843 -30)" opacity="0">
    <g id="Ellipse_8" data-name="Ellipse 8" transform="translate(1866 56)" fill="none" stroke="#ba1f6a" stroke-width="1">
      <circle cx="9.5" cy="9.5" r="9.5" stroke="none"/>
      <circle cx="9.5" cy="9.5" r="9" fill="none"/>
    </g>
    <text id="_1" data-name="1" transform="translate(1873.7 69.2)" fill="#323232" font-size="11" font-family="ElMessiri-Regular, El Messiri"><tspan x="0" y="0">1</tspan></text>
  </g>
</svg>
