<svg id="Basket" xmlns="http://www.w3.org/2000/svg" width="41.78" height="45.042" viewBox="0 0 41.78 45.042">
  <g id="Group_143" data-name="Group 143" transform="translate(17.181 30.461)">
    <g id="Group_142" data-name="Group 142">
      <path id="Path_136" data-name="Path 136" d="M214.45,349.8a.66.66,0,1,0-1.319.063l.45,9.275a.66.66,0,0,0,.659.628h.033a.659.659,0,0,0,.627-.691Z" transform="translate(-213.13 -349.171)" fill="#323232"/>
    </g>
  </g>
  <g id="Group_145" data-name="Group 145" transform="translate(11.58 34.79)">
    <g id="Group_144" data-name="Group 144">
      <path id="Path_137" data-name="Path 137" d="M151.5,403.987l-.734-5.042a.66.66,0,0,0-1.307.19l.734,5.042a.66.66,0,0,0,.653.566.714.714,0,0,0,.1-.007A.66.66,0,0,0,151.5,403.987Z" transform="translate(-149.45 -398.38)" fill="#323232"/>
    </g>
  </g>
  <g id="Group_147" data-name="Group 147" transform="translate(10.965 30.556)">
    <g id="Group_146" data-name="Group 146">
      <path id="Path_138" data-name="Path 138" d="M143.948,352.016l-.173-1.19a.66.66,0,1,0-1.307.19l.173,1.19a.66.66,0,0,0,.653.566.714.714,0,0,0,.1-.007A.661.661,0,0,0,143.948,352.016Z" transform="translate(-142.46 -350.26)" fill="#323232"/>
    </g>
  </g>
  <g id="Group_149" data-name="Group 149" transform="translate(28.277 38.741)">
    <g id="Group_148" data-name="Group 148">
      <path id="Path_139" data-name="Path 139" d="M340.174,443.307a.66.66,0,0,0-.749.559l-.158,1.09a.66.66,0,0,0,.559.749.715.715,0,0,0,.1.007.66.66,0,0,0,.653-.566l.158-1.09A.661.661,0,0,0,340.174,443.307Z" transform="translate(-339.26 -443.3)" fill="#323232"/>
    </g>
  </g>
  <path id="Path_143" data-name="Path 143" d="M126.625,264.14a1.513,1.513,0,0,0-1.335.812h2.671A1.513,1.513,0,0,0,126.625,264.14Z" transform="translate(-115.836 -241.16)" fill="none"/>
  <path id="Path_144" data-name="Path 144" d="M354.785,264.14a1.513,1.513,0,0,0-1.335.812h2.671A1.513,1.513,0,0,0,354.785,264.14Z" transform="translate(-323.925 -241.16)" fill="none"/>
  <path id="Path_145" data-name="Path 145" d="M240.705,264.14a1.513,1.513,0,0,0-1.335.812h2.671A1.513,1.513,0,0,0,240.705,264.14Z" transform="translate(-219.88 -241.16)" fill="none"/>
  <path id="Path_146" data-name="Path 146" d="M65.86,273.363h3.822v0H65.86Z" transform="translate(-61.634 -249.568)" fill="none"/>
  <path id="Path_147" data-name="Path 147" d="M353.43,273.363H356.1l0,0h-2.671S353.431,273.362,353.43,273.363Z" transform="translate(-323.906 -249.568)" fill="none"/>
  <path id="Path_148" data-name="Path 148" d="M399.771,273.363h3.95v0H399.77Z" transform="translate(-366.17 -249.568)" fill="none"/>
  <path id="Path_149" data-name="Path 149" d="M294.03,273.363h3.822v0H294.03Z" transform="translate(-269.732 -249.568)" fill="none"/>
  <path id="Path_150" data-name="Path 150" d="M171.6,273.363h3.95v0H171.6A0,0,0,0,1,171.6,273.363Z" transform="translate(-158.072 -249.568)" fill="none"/>
  <path id="Path_151" data-name="Path 151" d="M239.35,273.363h2.673l0,0h-2.671A0,0,0,0,1,239.35,273.363Z" transform="translate(-219.862 -249.568)" fill="none"/>
  <path id="Path_152" data-name="Path 152" d="M125.27,273.363h2.673l0,0h-2.671A0,0,0,0,1,125.27,273.363Z" transform="translate(-115.818 -249.568)" fill="none"/>
  <path id="Path_153" data-name="Path 153" d="M67.873,335.855a3.041,3.041,0,0,0,2.922,2.159H90.384a3.039,3.039,0,0,0,2.921-2.159L97.438,322.4H63.74Zm20.648-5.039.749-5.144a.66.66,0,0,1,1.307.19l-.749,5.144a.66.66,0,0,1-.653.566.714.714,0,0,1-.1-.007A.661.661,0,0,1,88.521,330.816Zm-5.481-5.175a.661.661,0,1,1,1.32.063l-.45,9.275a.659.659,0,0,1-.659.628h-.033a.661.661,0,0,1-.628-.691Z" transform="translate(-59.7 -294.294)" fill="none"/>
  <path id="Path_154" data-name="Path 154" d="M71.14,288.4H33.675a.835.835,0,1,0,0,1.67H71.141a.835.835,0,1,0,0-1.67Z" transform="translate(-31.519 -263.285)" fill="none"/>
  <path id="Path_155" data-name="Path 155" d="M278.65,362.7h.033a.66.66,0,0,0,.659-.628l.45-9.275a.661.661,0,0,0-1.32-.063l-.45,9.275A.661.661,0,0,0,278.65,362.7Z" transform="translate(-255.131 -321.383)" fill="#323232"/>
  <path id="Path_156" data-name="Path 156" d="M345.926,359.628a.715.715,0,0,0,.1.007.66.66,0,0,0,.653-.566l.749-5.144a.66.66,0,1,0-1.307-.19l-.749,5.144A.661.661,0,0,0,345.926,359.628Z" transform="translate(-316.546 -322.358)" fill="#323232"/>
  <path id="Path_157" data-name="Path 157" d="M57.442,273.363h-.75v0h-1.32v0h-3.95v0h-1.4l0,0H47.345l0,0h-1.4v0H42.119v0H39.981l0,0H37.31l0,0H35.3v0h-3.95v0h-1.4l0,0H27.275l0,0h-1.4v0H22.046v0h-1.32v0h-.75a2.156,2.156,0,1,0,0,4.312h.5l4.252,13.843a4.356,4.356,0,0,0,4.185,3.092H48.5a4.355,4.355,0,0,0,4.185-3.092l4.252-13.843h.5a2.156,2.156,0,1,0,0-4.312Zm-6.017,17.766a3.041,3.041,0,0,1-2.921,2.159H28.915a3.041,3.041,0,0,1-2.922-2.159L21.86,277.675h33.7Zm6.017-14.776H19.976a.835.835,0,1,1,0-1.67H57.442a.835.835,0,1,1,0,1.67Z" transform="translate(-17.82 -249.568)" fill="#323232"/>
  <path id="Path_158" data-name="Path 158" d="M95.357,12.541A17.1,17.1,0,0,0,89,5.45,16.858,16.858,0,0,0,63.248,19.773c0,2.314-.072,4.62,0,6.931h1.32V19.773a15.543,15.543,0,0,1,31.085,0V26.7H97c.121-.005,0-5.447,0-5.911A18.42,18.42,0,0,0,95.357,12.541Z" transform="translate(-59.222 -2.91)" fill="#323232"/>
</svg>
